<?xml version="1.0" encoding="UTF-8"?><svg id="Layer_1" xmlns="http://www.w3.org/2000/svg" viewBox="0 0 293.5 28.14"><g id="Lines-background"><path d="M22.23,3.73h0c.2,.2,.2,.51,0,.71l-14.14,14.14c-.2,.2-.51,.2-.71,0h0c-.2-.2-.2-.51,0-.71L21.52,3.73c.2-.2,.51-.2,.71,0Z" style="fill:#b88760; isolation:isolate; opacity:.6;"/><path d="M30.77,1.15h0c.2,.2,.2,.51,0,.71l-14.14,14.14c-.2,.2-.51,.2-.71,0h0c-.2-.2-.2-.51,0-.71L30.06,1.15c.2-.2,.51-.2,.71,0Z" style="fill:#b88760; isolation:isolate; opacity:.6;"/><path d="M23.78,13.15h0c.2,.2,.2,.51,0,.71l-14.14,14.14c-.2,.2-.51,.2-.71,0h0c-.2-.2-.2-.51,0-.71l14.14-14.14c.2-.2,.51-.2,.71,0Z" style="fill:#b88760; isolation:isolate; opacity:.6;"/><path d="M268.92,.15h0c.2-.2,.51-.2,.71,0l14.14,14.14c.2,.2,.2,.51,0,.71h0c-.2,.2-.51,.2-.71,0l-14.14-14.14c-.2-.2-.2-.51,0-.71Z" style="fill:#b88760; isolation:isolate; opacity:.6;"/><path d="M270.92,10.14h0c.2-.2,.51-.2,.71,0l14.14,14.14c.2,.2,.2,.51,0,.71h0c-.2,.2-.51,.2-.71,0l-14.14-14.14c-.2-.2-.2-.51,0-.71Z" style="fill:#b88760; isolation:isolate; opacity:.6;"/><path d="M259.93,6.15h0c.2-.2,.51-.2,.71,0l14.14,14.14c.2,.2,.2,.51,0,.71h0c-.2,.2-.51,.2-.71,0l-14.14-14.14c-.2-.2-.2-.51,0-.71Z" style="fill:#b88760; isolation:isolate; opacity:.6;"/></g><ellipse cx="146.75" cy="13.44" rx="146.25" ry="12.75" style="fill:none; opacity:.6; stroke:#b88760; stroke-miterlimit:10;"/></svg>