<svg width="70" height="70" viewBox="0 0 70 70" fill="none" xmlns="http://www.w3.org/2000/svg">
<path d="M35 69.875C54.2656 69.875 69.875 54.2656 69.875 35C69.875 15.7344 54.2656 0.125002 35 0.125C15.7344 0.124998 0.125002 15.7344 0.125 35C0.124998 54.2656 15.7344 69.875 35 69.875ZM39.0781 49.625C40.4844 50.8906 40.4844 53.1406 39.2188 54.4062L37.6719 55.9531C36.2656 57.3594 34.1562 57.3594 32.8906 55.9531L14.1875 37.25C12.9219 35.9844 12.9219 33.875 14.1875 32.6094L32.8906 13.9062C34.1563 12.6406 36.2656 12.6406 37.6719 13.9062L39.2188 15.4531C40.4844 16.7188 40.4844 18.9688 39.0781 20.2344L28.5312 30.5L54.125 30.5C56.0938 30.5 57.5 31.9063 57.5 33.875V36.125C57.5 37.9531 56.0938 39.5 54.125 39.5H28.5312L39.0781 49.625Z" fill="#BA8761" fill-opacity="0.7"/>
</svg>
