<svg width="1175" height="169" viewBox="0 0 1175 169" fill="none" xmlns="http://www.w3.org/2000/svg">
<path d="M1173.2 60.9848C1189.98 146.348 983.505 179.904 600.463 159.476C148.109 192.308 0 128.832 0 60.9848C13.8625 -27.2971 218.854 6.25902 542.825 6.25902C866.795 6.25902 1156.42 -24.3787 1173.2 60.9848Z" fill="#EB6F08" fill-opacity="0.8"/>
<path d="M541.02 38.776H536.988V49H534.108V38.776H530.094V36.4H541.02V38.776ZM547.945 36.4C549.061 36.4 550.027 36.586 550.843 36.958C551.671 37.33 552.307 37.858 552.751 38.542C553.195 39.226 553.417 40.036 553.417 40.972C553.417 41.896 553.195 42.706 552.751 43.402C552.307 44.086 551.671 44.614 550.843 44.986C550.027 45.346 549.061 45.526 547.945 45.526H545.407V49H542.491V36.4H547.945ZM547.783 43.15C548.659 43.15 549.325 42.964 549.781 42.592C550.237 42.208 550.465 41.668 550.465 40.972C550.465 40.264 550.237 39.724 549.781 39.352C549.325 38.968 548.659 38.776 547.783 38.776H545.407V43.15H547.783ZM566.075 36.4L560.711 46.372C560.195 47.332 559.571 48.058 558.839 48.55C558.119 49.042 557.333 49.288 556.481 49.288C555.821 49.288 555.137 49.144 554.429 48.856L555.131 46.642C555.635 46.798 556.055 46.876 556.391 46.876C556.751 46.876 557.075 46.792 557.363 46.624C557.651 46.444 557.915 46.168 558.155 45.796L558.263 45.652L553.295 36.4H556.409L559.757 43.168L563.213 36.4H566.075ZM579.886 46.624V51.61H577.186V49H568.294V51.61H565.594L565.612 46.624H566.116C566.872 46.6 567.406 46.048 567.718 44.968C568.03 43.888 568.222 42.346 568.294 40.342L568.438 36.4H578.122V46.624H579.886ZM570.868 40.612C570.808 42.112 570.682 43.372 570.49 44.392C570.298 45.4 570.004 46.144 569.608 46.624H575.242V38.776H570.922L570.868 40.612ZM591.245 46.66V49H581.489V36.4H591.011V38.74H584.387V41.476H590.237V43.744H584.387V46.66H591.245ZM604.796 36.4V49H601.88V43.834H596.156V49H593.24V36.4H596.156V41.368H601.88V36.4H604.796ZM612.331 36.4H615.229V44.608L621.241 36.4H623.977V49H621.097V40.81L615.085 49H612.331V36.4ZM633.918 42.43C634.65 42.682 635.22 43.078 635.628 43.618C636.048 44.146 636.258 44.764 636.258 45.472C636.258 46.24 636.006 46.906 635.502 47.47C634.998 48.034 634.314 48.466 633.45 48.766C632.598 49.066 631.662 49.216 630.642 49.216C629.778 49.216 628.914 49.108 628.05 48.892C627.198 48.676 626.388 48.346 625.62 47.902L626.52 45.814C627.072 46.15 627.678 46.408 628.338 46.588C629.01 46.756 629.664 46.84 630.3 46.84C631.164 46.84 631.878 46.684 632.442 46.372C633.018 46.06 633.306 45.622 633.306 45.058C633.306 44.59 633.108 44.236 632.712 43.996C632.328 43.756 631.8 43.636 631.128 43.636H628.05V41.44H630.912C631.5 41.44 631.956 41.32 632.28 41.08C632.616 40.84 632.784 40.51 632.784 40.09C632.784 39.598 632.544 39.214 632.064 38.938C631.596 38.662 630.99 38.524 630.246 38.524C629.694 38.524 629.124 38.602 628.536 38.758C627.948 38.902 627.39 39.124 626.862 39.424L625.98 37.156C627.312 36.472 628.752 36.13 630.3 36.13C631.284 36.13 632.19 36.274 633.018 36.562C633.846 36.85 634.506 37.27 634.998 37.822C635.49 38.374 635.736 39.016 635.736 39.748C635.736 40.348 635.574 40.882 635.25 41.35C634.926 41.818 634.482 42.178 633.918 42.43ZM638.206 36.4H648.376V38.722H641.104V41.314H644.596C646.12 41.314 647.278 41.632 648.07 42.268C648.874 42.904 649.276 43.822 649.276 45.022C649.276 46.282 648.832 47.26 647.944 47.956C647.056 48.652 645.802 49 644.182 49H638.206V36.4ZM644.02 46.84C644.764 46.84 645.334 46.696 645.73 46.408C646.126 46.108 646.324 45.676 646.324 45.112C646.324 44.008 645.556 43.456 644.02 43.456H641.104V46.84H644.02ZM657.147 49.216C655.839 49.216 654.657 48.934 653.601 48.37C652.557 47.806 651.735 47.032 651.135 46.048C650.547 45.052 650.253 43.936 650.253 42.7C650.253 41.464 650.547 40.354 651.135 39.37C651.735 38.374 652.557 37.594 653.601 37.03C654.657 36.466 655.839 36.184 657.147 36.184C658.455 36.184 659.631 36.466 660.675 37.03C661.719 37.594 662.541 38.374 663.141 39.37C663.741 40.354 664.041 41.464 664.041 42.7C664.041 43.936 663.741 45.052 663.141 46.048C662.541 47.032 661.719 47.806 660.675 48.37C659.631 48.934 658.455 49.216 657.147 49.216ZM657.147 46.732C657.891 46.732 658.563 46.564 659.163 46.228C659.763 45.88 660.231 45.4 660.567 44.788C660.915 44.176 661.089 43.48 661.089 42.7C661.089 41.92 660.915 41.224 660.567 40.612C660.231 40 659.763 39.526 659.163 39.19C658.563 38.842 657.891 38.668 657.147 38.668C656.403 38.668 655.731 38.842 655.131 39.19C654.531 39.526 654.057 40 653.709 40.612C653.373 41.224 653.205 41.92 653.205 42.7C653.205 43.48 653.373 44.176 653.709 44.788C654.057 45.4 654.531 45.88 655.131 46.228C655.731 46.564 656.403 46.732 657.147 46.732ZM671.382 36.4C672.498 36.4 673.464 36.586 674.28 36.958C675.108 37.33 675.744 37.858 676.188 38.542C676.632 39.226 676.854 40.036 676.854 40.972C676.854 41.896 676.632 42.706 676.188 43.402C675.744 44.086 675.108 44.614 674.28 44.986C673.464 45.346 672.498 45.526 671.382 45.526H668.844V49H665.928V36.4H671.382ZM671.22 43.15C672.096 43.15 672.762 42.964 673.218 42.592C673.674 42.208 673.902 41.668 673.902 40.972C673.902 40.264 673.674 39.724 673.218 39.352C672.762 38.968 672.096 38.776 671.22 38.776H668.844V43.15H671.22ZM682.701 42.808H687.795V45.058H682.701V42.808ZM703.184 46.3H697.334L696.218 49H693.23L698.846 36.4H701.726L707.36 49H704.3L703.184 46.3ZM702.266 44.086L700.268 39.262L698.27 44.086H702.266ZM709.745 44.626C709.745 44.002 709.883 43.486 710.159 43.078C710.447 42.67 710.861 42.22 711.401 41.728C711.797 41.368 712.085 41.068 712.265 40.828C712.457 40.576 712.553 40.294 712.553 39.982C712.553 39.538 712.373 39.19 712.013 38.938C711.665 38.674 711.197 38.542 710.609 38.542C710.045 38.542 709.541 38.662 709.097 38.902C708.665 39.13 708.299 39.454 707.999 39.874L705.821 38.596C706.325 37.828 707.003 37.234 707.855 36.814C708.719 36.394 709.739 36.184 710.915 36.184C712.295 36.184 713.399 36.478 714.227 37.066C715.067 37.654 715.487 38.47 715.487 39.514C715.487 40.006 715.403 40.438 715.235 40.81C715.079 41.182 714.881 41.5 714.641 41.764C714.413 42.016 714.113 42.31 713.741 42.646C713.297 43.042 712.973 43.378 712.769 43.654C712.565 43.918 712.463 44.242 712.463 44.626H709.745ZM711.113 49.144C710.621 49.144 710.207 48.988 709.871 48.676C709.547 48.352 709.385 47.962 709.385 47.506C709.385 47.05 709.547 46.672 709.871 46.372C710.195 46.06 710.609 45.904 711.113 45.904C711.617 45.904 712.031 46.06 712.355 46.372C712.679 46.672 712.841 47.05 712.841 47.506C712.841 47.962 712.673 48.352 712.337 48.676C712.013 48.988 711.605 49.144 711.113 49.144ZM125.929 65.4H128.827V73.608L134.839 65.4H137.575V78H134.695V69.81L128.683 78H125.929V65.4ZM147.516 71.43C148.248 71.682 148.818 72.078 149.226 72.618C149.646 73.146 149.856 73.764 149.856 74.472C149.856 75.24 149.604 75.906 149.1 76.47C148.596 77.034 147.912 77.466 147.048 77.766C146.196 78.066 145.26 78.216 144.24 78.216C143.376 78.216 142.512 78.108 141.648 77.892C140.796 77.676 139.986 77.346 139.218 76.902L140.118 74.814C140.67 75.15 141.276 75.408 141.936 75.588C142.608 75.756 143.262 75.84 143.898 75.84C144.762 75.84 145.476 75.684 146.04 75.372C146.616 75.06 146.904 74.622 146.904 74.058C146.904 73.59 146.706 73.236 146.31 72.996C145.926 72.756 145.398 72.636 144.726 72.636H141.648V70.44H144.51C145.098 70.44 145.554 70.32 145.878 70.08C146.214 69.84 146.382 69.51 146.382 69.09C146.382 68.598 146.142 68.214 145.662 67.938C145.194 67.662 144.588 67.524 143.844 67.524C143.292 67.524 142.722 67.602 142.134 67.758C141.546 67.902 140.988 68.124 140.46 68.424L139.578 66.156C140.91 65.472 142.35 65.13 143.898 65.13C144.882 65.13 145.788 65.274 146.616 65.562C147.444 65.85 148.104 66.27 148.596 66.822C149.088 67.374 149.334 68.016 149.334 68.748C149.334 69.348 149.172 69.882 148.848 70.35C148.524 70.818 148.08 71.178 147.516 71.43ZM151.804 65.4H161.974V67.722H154.702V70.314H158.194C159.718 70.314 160.876 70.632 161.668 71.268C162.472 71.904 162.874 72.822 162.874 74.022C162.874 75.282 162.43 76.26 161.542 76.956C160.654 77.652 159.4 78 157.78 78H151.804V65.4ZM157.618 75.84C158.362 75.84 158.932 75.696 159.328 75.408C159.724 75.108 159.922 74.676 159.922 74.112C159.922 73.008 159.154 72.456 157.618 72.456H154.702V75.84H157.618ZM174.49 75.66V78H164.734V65.4H174.256V67.74H167.632V70.476H173.482V72.744H167.632V75.66H174.49ZM181.939 65.4C183.055 65.4 184.021 65.586 184.837 65.958C185.665 66.33 186.301 66.858 186.745 67.542C187.189 68.226 187.411 69.036 187.411 69.972C187.411 70.896 187.189 71.706 186.745 72.402C186.301 73.086 185.665 73.614 184.837 73.986C184.021 74.346 183.055 74.526 181.939 74.526H179.401V78H176.485V65.4H181.939ZM181.777 72.15C182.653 72.15 183.319 71.964 183.775 71.592C184.231 71.208 184.459 70.668 184.459 69.972C184.459 69.264 184.231 68.724 183.775 68.352C183.319 67.968 182.653 67.776 181.777 67.776H179.401V72.15H181.777ZM188.974 65.4H191.872V73.608L197.884 65.4H200.62V78H197.74V69.81L191.728 78H188.974V65.4ZM217.891 75.66V78H208.135V65.4H217.657V67.74H211.033V70.476H216.883V72.744H211.033V75.66H217.891ZM225.341 65.4C226.457 65.4 227.423 65.586 228.239 65.958C229.067 66.33 229.703 66.858 230.147 67.542C230.591 68.226 230.813 69.036 230.813 69.972C230.813 70.896 230.591 71.706 230.147 72.402C229.703 73.086 229.067 73.614 228.239 73.986C227.423 74.346 226.457 74.526 225.341 74.526H222.803V78H219.887V65.4H225.341ZM225.179 72.15C226.055 72.15 226.721 71.964 227.177 71.592C227.633 71.208 227.861 70.668 227.861 69.972C227.861 69.264 227.633 68.724 227.177 68.352C226.721 67.968 226.055 67.776 225.179 67.776H222.803V72.15H225.179ZM240.275 75.3H234.425L233.309 78H230.321L235.937 65.4H238.817L244.451 78H241.391L240.275 75.3ZM239.357 73.086L237.359 68.262L235.361 73.086H239.357ZM247.152 74.652C247.656 74.652 248.07 74.814 248.394 75.138C248.718 75.45 248.88 75.864 248.88 76.38C248.88 76.62 248.85 76.86 248.79 77.1C248.73 77.34 248.598 77.7 248.394 78.18L247.368 80.772H245.586L246.378 77.91C246.078 77.79 245.838 77.598 245.658 77.334C245.49 77.058 245.406 76.74 245.406 76.38C245.406 75.864 245.568 75.45 245.892 75.138C246.228 74.814 246.648 74.652 247.152 74.652ZM261.389 78.216C260.105 78.216 258.941 77.94 257.897 77.388C256.865 76.824 256.049 76.05 255.449 75.066C254.861 74.07 254.567 72.948 254.567 71.7C254.567 70.452 254.861 69.336 255.449 68.352C256.049 67.356 256.865 66.582 257.897 66.03C258.941 65.466 260.111 65.184 261.407 65.184C262.499 65.184 263.483 65.376 264.359 65.76C265.247 66.144 265.991 66.696 266.591 67.416L264.719 69.144C263.867 68.16 262.811 67.668 261.551 67.668C260.771 67.668 260.075 67.842 259.463 68.19C258.851 68.526 258.371 69 258.023 69.612C257.687 70.224 257.519 70.92 257.519 71.7C257.519 72.48 257.687 73.176 258.023 73.788C258.371 74.4 258.851 74.88 259.463 75.228C260.075 75.564 260.771 75.732 261.551 75.732C262.811 75.732 263.867 75.234 264.719 74.238L266.591 75.966C265.991 76.698 265.247 77.256 264.359 77.64C263.471 78.024 262.481 78.216 261.389 78.216ZM279.065 65.4V78H276.185V67.776H271.865L271.775 70.404C271.715 72.192 271.571 73.644 271.343 74.76C271.115 75.864 270.731 76.716 270.191 77.316C269.663 77.904 268.919 78.198 267.959 78.198C267.563 78.198 267.083 78.132 266.519 78L266.699 75.534C266.855 75.582 267.029 75.606 267.221 75.606C267.917 75.606 268.403 75.198 268.679 74.382C268.955 73.554 269.129 72.264 269.201 70.512L269.381 65.4H279.065ZM291.608 75.66V78H281.852V65.4H291.374V67.74H284.75V70.476H290.6V72.744H284.75V75.66H291.608ZM306.599 75.624V80.61H303.899V78H295.007V80.61H292.307L292.325 75.624H292.829C293.585 75.6 294.119 75.048 294.431 73.968C294.743 72.888 294.935 71.346 295.007 69.342L295.151 65.4H304.835V75.624H306.599ZM297.581 69.612C297.521 71.112 297.395 72.372 297.203 73.392C297.011 74.4 296.717 75.144 296.321 75.624H301.955V67.776H297.635L297.581 69.612ZM322.57 67.776H318.538V78H315.658V67.776H311.644V65.4H322.57V67.776ZM329.877 78.216C328.569 78.216 327.387 77.934 326.331 77.37C325.287 76.806 324.465 76.032 323.865 75.048C323.277 74.052 322.983 72.936 322.983 71.7C322.983 70.464 323.277 69.354 323.865 68.37C324.465 67.374 325.287 66.594 326.331 66.03C327.387 65.466 328.569 65.184 329.877 65.184C331.185 65.184 332.361 65.466 333.405 66.03C334.449 66.594 335.271 67.374 335.871 68.37C336.471 69.354 336.771 70.464 336.771 71.7C336.771 72.936 336.471 74.052 335.871 75.048C335.271 76.032 334.449 76.806 333.405 77.37C332.361 77.934 331.185 78.216 329.877 78.216ZM329.877 75.732C330.621 75.732 331.293 75.564 331.893 75.228C332.493 74.88 332.961 74.4 333.297 73.788C333.645 73.176 333.819 72.48 333.819 71.7C333.819 70.92 333.645 70.224 333.297 69.612C332.961 69 332.493 68.526 331.893 68.19C331.293 67.842 330.621 67.668 329.877 67.668C329.133 67.668 328.461 67.842 327.861 68.19C327.261 68.526 326.787 69 326.439 69.612C326.103 70.224 325.935 70.92 325.935 71.7C325.935 72.48 326.103 73.176 326.439 73.788C326.787 74.4 327.261 74.88 327.861 75.228C328.461 75.564 329.133 75.732 329.877 75.732ZM347.387 71.43C348.155 71.658 348.743 72.03 349.151 72.546C349.559 73.062 349.763 73.698 349.763 74.454C349.763 75.57 349.337 76.44 348.485 77.064C347.645 77.688 346.439 78 344.867 78H338.657V65.4H344.525C345.989 65.4 347.129 65.682 347.945 66.246C348.761 66.81 349.169 67.614 349.169 68.658C349.169 69.282 349.013 69.834 348.701 70.314C348.389 70.782 347.951 71.154 347.387 71.43ZM341.555 70.62H344.273C344.909 70.62 345.389 70.494 345.713 70.242C346.037 69.978 346.199 69.594 346.199 69.09C346.199 68.598 346.031 68.22 345.695 67.956C345.371 67.692 344.897 67.56 344.273 67.56H341.555V70.62ZM344.759 75.84C346.127 75.84 346.811 75.3 346.811 74.22C346.811 73.176 346.127 72.654 344.759 72.654H341.555V75.84H344.759ZM360.241 75.3H354.391L353.275 78H350.287L355.903 65.4H358.783L364.417 78H361.357L360.241 75.3ZM359.323 73.086L357.325 68.262L355.327 73.086H359.323ZM381.842 65.4L376.478 75.372C375.962 76.332 375.338 77.058 374.606 77.55C373.886 78.042 373.1 78.288 372.248 78.288C371.588 78.288 370.904 78.144 370.196 77.856L370.898 75.642C371.402 75.798 371.822 75.876 372.158 75.876C372.518 75.876 372.842 75.792 373.13 75.624C373.418 75.444 373.682 75.168 373.922 74.796L374.03 74.652L369.062 65.4H372.176L375.524 72.168L378.98 65.4H381.842ZM388.322 65.4C389.438 65.4 390.404 65.586 391.22 65.958C392.048 66.33 392.684 66.858 393.128 67.542C393.572 68.226 393.794 69.036 393.794 69.972C393.794 70.896 393.572 71.706 393.128 72.402C392.684 73.086 392.048 73.614 391.22 73.986C390.404 74.346 389.438 74.526 388.322 74.526H385.784V78H382.868V65.4H388.322ZM388.16 72.15C389.036 72.15 389.702 71.964 390.158 71.592C390.614 71.208 390.842 70.668 390.842 69.972C390.842 69.264 390.614 68.724 390.158 68.352C389.702 67.968 389.036 67.776 388.16 67.776H385.784V72.15H388.16ZM401.545 78.216C400.237 78.216 399.055 77.934 397.999 77.37C396.955 76.806 396.133 76.032 395.533 75.048C394.945 74.052 394.651 72.936 394.651 71.7C394.651 70.464 394.945 69.354 395.533 68.37C396.133 67.374 396.955 66.594 397.999 66.03C399.055 65.466 400.237 65.184 401.545 65.184C402.853 65.184 404.029 65.466 405.073 66.03C406.117 66.594 406.939 67.374 407.539 68.37C408.139 69.354 408.439 70.464 408.439 71.7C408.439 72.936 408.139 74.052 407.539 75.048C406.939 76.032 406.117 76.806 405.073 77.37C404.029 77.934 402.853 78.216 401.545 78.216ZM401.545 75.732C402.289 75.732 402.961 75.564 403.561 75.228C404.161 74.88 404.629 74.4 404.965 73.788C405.313 73.176 405.487 72.48 405.487 71.7C405.487 70.92 405.313 70.224 404.965 69.612C404.629 69 404.161 68.526 403.561 68.19C402.961 67.842 402.289 67.668 401.545 67.668C400.801 67.668 400.129 67.842 399.529 68.19C398.929 68.526 398.455 69 398.107 69.612C397.771 70.224 397.603 70.92 397.603 71.7C397.603 72.48 397.771 73.176 398.107 73.788C398.455 74.4 398.929 74.88 399.529 75.228C400.129 75.564 400.801 75.732 401.545 75.732ZM415.203 72.924H413.187V78H410.289V65.4H413.187V70.494H415.275L418.587 65.4H421.665L417.543 71.484L421.791 78H418.479L415.203 72.924ZM424.012 74.652C424.516 74.652 424.93 74.814 425.254 75.138C425.578 75.45 425.74 75.864 425.74 76.38C425.74 76.62 425.71 76.86 425.65 77.1C425.59 77.34 425.458 77.7 425.254 78.18L424.228 80.772H422.446L423.238 77.91C422.938 77.79 422.698 77.598 422.518 77.334C422.35 77.058 422.266 76.74 422.266 76.38C422.266 75.864 422.428 75.45 422.752 75.138C423.088 74.814 423.508 74.652 424.012 74.652ZM439.454 71.43C440.186 71.682 440.756 72.078 441.164 72.618C441.584 73.146 441.794 73.764 441.794 74.472C441.794 75.24 441.542 75.906 441.038 76.47C440.534 77.034 439.85 77.466 438.986 77.766C438.134 78.066 437.198 78.216 436.178 78.216C435.314 78.216 434.45 78.108 433.586 77.892C432.734 77.676 431.924 77.346 431.156 76.902L432.056 74.814C432.608 75.15 433.214 75.408 433.874 75.588C434.546 75.756 435.2 75.84 435.836 75.84C436.7 75.84 437.414 75.684 437.978 75.372C438.554 75.06 438.842 74.622 438.842 74.058C438.842 73.59 438.644 73.236 438.248 72.996C437.864 72.756 437.336 72.636 436.664 72.636H433.586V70.44H436.448C437.036 70.44 437.492 70.32 437.816 70.08C438.152 69.84 438.32 69.51 438.32 69.09C438.32 68.598 438.08 68.214 437.6 67.938C437.132 67.662 436.526 67.524 435.782 67.524C435.23 67.524 434.66 67.602 434.072 67.758C433.484 67.902 432.926 68.124 432.398 68.424L431.516 66.156C432.848 65.472 434.288 65.13 435.836 65.13C436.82 65.13 437.726 65.274 438.554 65.562C439.382 65.85 440.042 66.27 440.534 66.822C441.026 67.374 441.272 68.016 441.272 68.748C441.272 69.348 441.11 69.882 440.786 70.35C440.462 70.818 440.018 71.178 439.454 71.43ZM452.275 75.3H446.425L445.309 78H442.321L447.937 65.4H450.817L456.451 78H453.391L452.275 75.3ZM451.357 73.086L449.359 68.262L447.361 73.086H451.357ZM467.377 72.924H465.361V78H462.463V65.4H465.361V70.494H467.449L470.761 65.4H473.839L469.717 71.484L473.965 78H470.653L467.377 72.924ZM480.931 78.216C479.623 78.216 478.441 77.934 477.385 77.37C476.341 76.806 475.519 76.032 474.919 75.048C474.331 74.052 474.037 72.936 474.037 71.7C474.037 70.464 474.331 69.354 474.919 68.37C475.519 67.374 476.341 66.594 477.385 66.03C478.441 65.466 479.623 65.184 480.931 65.184C482.239 65.184 483.415 65.466 484.459 66.03C485.503 66.594 486.325 67.374 486.925 68.37C487.525 69.354 487.825 70.464 487.825 71.7C487.825 72.936 487.525 74.052 486.925 75.048C486.325 76.032 485.503 76.806 484.459 77.37C483.415 77.934 482.239 78.216 480.931 78.216ZM480.931 75.732C481.675 75.732 482.347 75.564 482.947 75.228C483.547 74.88 484.015 74.4 484.351 73.788C484.699 73.176 484.873 72.48 484.873 71.7C484.873 70.92 484.699 70.224 484.351 69.612C484.015 69 483.547 68.526 482.947 68.19C482.347 67.842 481.675 67.668 480.931 67.668C480.187 67.668 479.515 67.842 478.915 68.19C478.315 68.526 477.841 69 477.493 69.612C477.157 70.224 476.989 70.92 476.989 71.7C476.989 72.48 477.157 73.176 477.493 73.788C477.841 74.4 478.315 74.88 478.915 75.228C479.515 75.564 480.187 75.732 480.931 75.732ZM489.711 65.4H492.609V73.608L498.621 65.4H501.357V78H498.477V69.81L492.465 78H489.711V65.4ZM495.525 64.59C493.221 64.59 492.057 63.672 492.033 61.836H494.031C494.055 62.712 494.553 63.15 495.525 63.15C496.005 63.15 496.371 63.042 496.623 62.826C496.875 62.598 497.007 62.268 497.019 61.836H499.017C499.005 62.736 498.711 63.42 498.135 63.888C497.559 64.356 496.689 64.59 495.525 64.59ZM513.764 67.776H509.732V78H506.852V67.776H502.838V65.4H513.764V67.776ZM521.071 78.216C519.763 78.216 518.581 77.934 517.525 77.37C516.481 76.806 515.659 76.032 515.059 75.048C514.471 74.052 514.177 72.936 514.177 71.7C514.177 70.464 514.471 69.354 515.059 68.37C515.659 67.374 516.481 66.594 517.525 66.03C518.581 65.466 519.763 65.184 521.071 65.184C522.379 65.184 523.555 65.466 524.599 66.03C525.643 66.594 526.465 67.374 527.065 68.37C527.665 69.354 527.965 70.464 527.965 71.7C527.965 72.936 527.665 74.052 527.065 75.048C526.465 76.032 525.643 76.806 524.599 77.37C523.555 77.934 522.379 78.216 521.071 78.216ZM521.071 75.732C521.815 75.732 522.487 75.564 523.087 75.228C523.687 74.88 524.155 74.4 524.491 73.788C524.839 73.176 525.013 72.48 525.013 71.7C525.013 70.92 524.839 70.224 524.491 69.612C524.155 69 523.687 68.526 523.087 68.19C522.487 67.842 521.815 67.668 521.071 67.668C520.327 67.668 519.655 67.842 519.055 68.19C518.455 68.526 517.981 69 517.633 69.612C517.297 70.224 517.129 70.92 517.129 71.7C517.129 72.48 517.297 73.176 517.633 73.788C517.981 74.4 518.455 74.88 519.055 75.228C519.655 75.564 520.327 75.732 521.071 75.732ZM540.547 78.216C539.263 78.216 538.099 77.94 537.055 77.388C536.023 76.824 535.207 76.05 534.607 75.066C534.019 74.07 533.725 72.948 533.725 71.7C533.725 70.452 534.019 69.336 534.607 68.352C535.207 67.356 536.023 66.582 537.055 66.03C538.099 65.466 539.269 65.184 540.565 65.184C541.657 65.184 542.641 65.376 543.517 65.76C544.405 66.144 545.149 66.696 545.749 67.416L543.877 69.144C543.025 68.16 541.969 67.668 540.709 67.668C539.929 67.668 539.233 67.842 538.621 68.19C538.009 68.526 537.529 69 537.181 69.612C536.845 70.224 536.677 70.92 536.677 71.7C536.677 72.48 536.845 73.176 537.181 73.788C537.529 74.4 538.009 74.88 538.621 75.228C539.233 75.564 539.929 75.732 540.709 75.732C541.969 75.732 543.025 75.234 543.877 74.238L545.749 75.966C545.149 76.698 544.405 77.256 543.517 77.64C542.629 78.024 541.639 78.216 540.547 78.216ZM558.756 78L558.738 70.458L555.03 76.668H553.734L550.026 70.602V78H547.29V65.4H549.702L554.418 73.23L559.062 65.4H561.474L561.492 78H558.756ZM574.324 65.4V78H571.444V74.652H568.78L566.548 78H563.47L566.098 74.202C565.246 73.854 564.592 73.332 564.136 72.636C563.68 71.928 563.452 71.082 563.452 70.098C563.452 69.126 563.674 68.292 564.118 67.596C564.562 66.888 565.192 66.348 566.008 65.976C566.824 65.592 567.784 65.4 568.888 65.4H574.324ZM568.96 67.776C568.132 67.776 567.496 67.968 567.052 68.352C566.62 68.736 566.404 69.306 566.404 70.062C566.404 70.794 566.614 71.358 567.034 71.754C567.454 72.15 568.072 72.348 568.888 72.348H571.444V67.776H568.96ZM586.751 67.776H582.719V78H579.839V67.776H575.825V65.4H586.751V67.776ZM596.121 75.3H590.271L589.155 78H586.167L591.783 65.4H594.663L600.297 78H597.237L596.121 75.3ZM595.203 73.086L593.205 68.262L591.207 73.086H595.203ZM618.24 65.4V78H601.608V65.4H604.506V75.624H608.484V65.4H611.382V75.624H615.342V65.4H618.24ZM621.815 74.652C622.319 74.652 622.733 74.814 623.057 75.138C623.381 75.45 623.543 75.864 623.543 76.38C623.543 76.62 623.513 76.86 623.453 77.1C623.393 77.34 623.261 77.7 623.057 78.18L622.031 80.772H620.249L621.041 77.91C620.741 77.79 620.501 77.598 620.321 77.334C620.153 77.058 620.069 76.74 620.069 76.38C620.069 75.864 620.231 75.45 620.555 75.138C620.891 74.814 621.311 74.652 621.815 74.652ZM640.444 65.4V78H637.564V73.464C636.472 73.86 635.458 74.058 634.522 74.058C632.83 74.058 631.534 73.656 630.634 72.852C629.734 72.036 629.284 70.866 629.284 69.342V65.4H632.164V69.018C632.164 69.882 632.392 70.536 632.848 70.98C633.316 71.412 633.988 71.628 634.864 71.628C635.824 71.628 636.724 71.442 637.564 71.07V65.4H640.444ZM652.972 75.66V78H643.216V65.4H652.738V67.74H646.114V70.476H651.964V72.744H646.114V75.66H652.972ZM665.663 78.216C664.379 78.216 663.215 77.94 662.171 77.388C661.139 76.824 660.323 76.05 659.723 75.066C659.135 74.07 658.841 72.948 658.841 71.7C658.841 70.452 659.135 69.336 659.723 68.352C660.323 67.356 661.139 66.582 662.171 66.03C663.215 65.466 664.385 65.184 665.681 65.184C666.773 65.184 667.757 65.376 668.633 65.76C669.521 66.144 670.265 66.696 670.865 67.416L668.993 69.144C668.141 68.16 667.085 67.668 665.825 67.668C665.045 67.668 664.349 67.842 663.737 68.19C663.125 68.526 662.645 69 662.297 69.612C661.961 70.224 661.793 70.92 661.793 71.7C661.793 72.48 661.961 73.176 662.297 73.788C662.645 74.4 663.125 74.88 663.737 75.228C664.349 75.564 665.045 75.732 665.825 75.732C667.085 75.732 668.141 75.234 668.993 74.238L670.865 75.966C670.265 76.698 669.521 77.256 668.633 77.64C667.745 78.024 666.755 78.216 665.663 78.216ZM672.406 65.4H675.304V73.608L681.316 65.4H684.052V78H681.172V69.81L675.16 78H672.406V65.4ZM703.123 65.4V78H700.207V72.834H694.483V78H691.567V65.4H694.483V70.368H700.207V65.4H703.123ZM714.452 75.3H708.602L707.486 78H704.498L710.114 65.4H712.994L718.628 78H715.568L714.452 75.3ZM713.534 73.086L711.536 68.262L709.538 73.086H713.534ZM719.939 65.4H722.837V73.608L728.849 65.4H731.585V78H728.705V69.81L722.693 78H719.939V65.4ZM725.753 64.59C723.449 64.59 722.285 63.672 722.261 61.836H724.259C724.283 62.712 724.781 63.15 725.753 63.15C726.233 63.15 726.599 63.042 726.851 62.826C727.103 62.598 727.235 62.268 727.247 61.836H729.245C729.233 62.736 728.939 63.42 728.363 63.888C727.787 64.356 726.917 64.59 725.753 64.59ZM733.732 71.808H738.826V74.058H733.732V71.808ZM752.429 65.4V78H749.531V67.776H743.843V78H740.945V65.4H752.429ZM761.205 78.216C759.897 78.216 758.715 77.934 757.659 77.37C756.615 76.806 755.793 76.032 755.193 75.048C754.605 74.052 754.311 72.936 754.311 71.7C754.311 70.464 754.605 69.354 755.193 68.37C755.793 67.374 756.615 66.594 757.659 66.03C758.715 65.466 759.897 65.184 761.205 65.184C762.513 65.184 763.689 65.466 764.733 66.03C765.777 66.594 766.599 67.374 767.199 68.37C767.799 69.354 768.099 70.464 768.099 71.7C768.099 72.936 767.799 74.052 767.199 75.048C766.599 76.032 765.777 76.806 764.733 77.37C763.689 77.934 762.513 78.216 761.205 78.216ZM761.205 75.732C761.949 75.732 762.621 75.564 763.221 75.228C763.821 74.88 764.289 74.4 764.625 73.788C764.973 73.176 765.147 72.48 765.147 71.7C765.147 70.92 764.973 70.224 764.625 69.612C764.289 69 763.821 68.526 763.221 68.19C762.621 67.842 761.949 67.668 761.205 67.668C760.461 67.668 759.789 67.842 759.189 68.19C758.589 68.526 758.115 69 757.767 69.612C757.431 70.224 757.263 70.92 757.263 71.7C757.263 72.48 757.431 73.176 757.767 73.788C758.115 74.4 758.589 74.88 759.189 75.228C759.789 75.564 760.461 75.732 761.205 75.732ZM782.629 75.624V80.61H779.929V78H771.037V80.61H768.337L768.355 75.624H768.859C769.615 75.6 770.149 75.048 770.461 73.968C770.773 72.888 770.965 71.346 771.037 69.342L771.181 65.4H780.865V75.624H782.629ZM773.611 69.612C773.551 71.112 773.425 72.372 773.233 73.392C773.041 74.4 772.747 75.144 772.351 75.624H777.985V67.776H773.665L773.611 69.612ZM793.106 67.776H787.112L787.13 78H784.232V65.4H793.124L793.106 67.776ZM799.271 78.216C797.963 78.216 796.781 77.934 795.725 77.37C794.681 76.806 793.859 76.032 793.259 75.048C792.671 74.052 792.377 72.936 792.377 71.7C792.377 70.464 792.671 69.354 793.259 68.37C793.859 67.374 794.681 66.594 795.725 66.03C796.781 65.466 797.963 65.184 799.271 65.184C800.579 65.184 801.755 65.466 802.799 66.03C803.843 66.594 804.665 67.374 805.265 68.37C805.865 69.354 806.165 70.464 806.165 71.7C806.165 72.936 805.865 74.052 805.265 75.048C804.665 76.032 803.843 76.806 802.799 77.37C801.755 77.934 800.579 78.216 799.271 78.216ZM799.271 75.732C800.015 75.732 800.687 75.564 801.287 75.228C801.887 74.88 802.355 74.4 802.691 73.788C803.039 73.176 803.213 72.48 803.213 71.7C803.213 70.92 803.039 70.224 802.691 69.612C802.355 69 801.887 68.526 801.287 68.19C800.687 67.842 800.015 67.668 799.271 67.668C798.527 67.668 797.855 67.842 797.255 68.19C796.655 68.526 796.181 69 795.833 69.612C795.497 70.224 795.329 70.92 795.329 71.7C795.329 72.48 795.497 73.176 795.833 73.788C796.181 74.4 796.655 74.88 797.255 75.228C797.855 75.564 798.527 75.732 799.271 75.732ZM817.506 67.776H813.474V78H810.594V67.776H806.58V65.4H817.506V67.776ZM827.707 71.43C828.475 71.658 829.063 72.03 829.471 72.546C829.879 73.062 830.083 73.698 830.083 74.454C830.083 75.57 829.657 76.44 828.805 77.064C827.965 77.688 826.759 78 825.187 78H818.977V65.4H824.845C826.309 65.4 827.449 65.682 828.265 66.246C829.081 66.81 829.489 67.614 829.489 68.658C829.489 69.282 829.333 69.834 829.021 70.314C828.709 70.782 828.271 71.154 827.707 71.43ZM821.875 70.62H824.593C825.229 70.62 825.709 70.494 826.033 70.242C826.357 69.978 826.519 69.594 826.519 69.09C826.519 68.598 826.351 68.22 826.015 67.956C825.691 67.692 825.217 67.56 824.593 67.56H821.875V70.62ZM825.079 75.84C826.447 75.84 827.131 75.3 827.131 74.22C827.131 73.176 826.447 72.654 825.079 72.654H821.875V75.84H825.079ZM841.785 75.66V78H832.029V65.4H841.551V67.74H834.927V70.476H840.777V72.744H834.927V75.66H841.785ZM855.336 65.4V78H852.42V72.834H846.696V78H843.78V65.4H846.696V70.368H852.42V65.4H855.336ZM858.943 74.652C859.447 74.652 859.861 74.814 860.185 75.138C860.509 75.45 860.671 75.864 860.671 76.38C860.671 76.62 860.641 76.86 860.581 77.1C860.521 77.34 860.389 77.7 860.185 78.18L859.159 80.772H857.377L858.169 77.91C857.869 77.79 857.629 77.598 857.449 77.334C857.281 77.058 857.197 76.74 857.197 76.38C857.197 75.864 857.359 75.45 857.683 75.138C858.019 74.814 858.439 74.652 858.943 74.652ZM875.754 75.3H869.904L868.788 78H865.8L871.416 65.4H874.296L879.93 78H876.87L875.754 75.3ZM874.836 73.086L872.838 68.262L870.84 73.086H874.836ZM886.118 72.924H884.102V78H881.204V65.4H884.102V70.494H886.19L889.502 65.4H892.58L888.458 71.484L892.706 78H889.394L886.118 72.924ZM899.672 78.216C898.364 78.216 897.182 77.934 896.126 77.37C895.082 76.806 894.26 76.032 893.66 75.048C893.072 74.052 892.778 72.936 892.778 71.7C892.778 70.464 893.072 69.354 893.66 68.37C894.26 67.374 895.082 66.594 896.126 66.03C897.182 65.466 898.364 65.184 899.672 65.184C900.98 65.184 902.156 65.466 903.2 66.03C904.244 66.594 905.066 67.374 905.666 68.37C906.266 69.354 906.566 70.464 906.566 71.7C906.566 72.936 906.266 74.052 905.666 75.048C905.066 76.032 904.244 76.806 903.2 77.37C902.156 77.934 900.98 78.216 899.672 78.216ZM899.672 75.732C900.416 75.732 901.088 75.564 901.688 75.228C902.288 74.88 902.756 74.4 903.092 73.788C903.44 73.176 903.614 72.48 903.614 71.7C903.614 70.92 903.44 70.224 903.092 69.612C902.756 69 902.288 68.526 901.688 68.19C901.088 67.842 900.416 67.668 899.672 67.668C898.928 67.668 898.256 67.842 897.656 68.19C897.056 68.526 896.582 69 896.234 69.612C895.898 70.224 895.73 70.92 895.73 71.7C895.73 72.48 895.898 73.176 896.234 73.788C896.582 74.4 897.056 74.88 897.656 75.228C898.256 75.564 898.928 75.732 899.672 75.732ZM919.148 78.216C917.864 78.216 916.7 77.94 915.656 77.388C914.624 76.824 913.808 76.05 913.208 75.066C912.62 74.07 912.326 72.948 912.326 71.7C912.326 70.452 912.62 69.336 913.208 68.352C913.808 67.356 914.624 66.582 915.656 66.03C916.7 65.466 917.87 65.184 919.166 65.184C920.258 65.184 921.242 65.376 922.118 65.76C923.006 66.144 923.75 66.696 924.35 67.416L922.478 69.144C921.626 68.16 920.57 67.668 919.31 67.668C918.53 67.668 917.834 67.842 917.222 68.19C916.61 68.526 916.13 69 915.782 69.612C915.446 70.224 915.278 70.92 915.278 71.7C915.278 72.48 915.446 73.176 915.782 73.788C916.13 74.4 916.61 74.88 917.222 75.228C917.834 75.564 918.53 75.732 919.31 75.732C920.57 75.732 921.626 75.234 922.478 74.238L924.35 75.966C923.75 76.698 923.006 77.256 922.118 77.64C921.23 78.024 920.24 78.216 919.148 78.216ZM935.646 75.66V78H925.89V65.4H935.412V67.74H928.788V70.476H934.638V72.744H928.788V75.66H935.646ZM952.729 65.4V78H949.849V73.464C948.757 73.86 947.743 74.058 946.807 74.058C945.115 74.058 943.819 73.656 942.919 72.852C942.019 72.036 941.569 70.866 941.569 69.342V65.4H944.449V69.018C944.449 69.882 944.677 70.536 945.133 70.98C945.601 71.412 946.273 71.628 947.149 71.628C948.109 71.628 949.009 71.442 949.849 71.07V65.4H952.729ZM966.878 65.4L961.514 75.372C960.998 76.332 960.374 77.058 959.642 77.55C958.922 78.042 958.136 78.288 957.284 78.288C956.624 78.288 955.94 78.144 955.232 77.856L955.934 75.642C956.438 75.798 956.858 75.876 957.194 75.876C957.554 75.876 957.878 75.792 958.166 75.624C958.454 75.444 958.718 75.168 958.958 74.796L959.066 74.652L954.098 65.4H957.212L960.56 72.168L964.016 65.4H966.878ZM980.688 75.624V80.61H977.988V78H969.096V80.61H966.396L966.414 75.624H966.918C967.674 75.6 968.208 75.048 968.52 73.968C968.832 72.888 969.024 71.346 969.096 69.342L969.24 65.4H978.924V75.624H980.688ZM971.67 69.612C971.61 71.112 971.484 72.372 971.292 73.392C971.1 74.4 970.806 75.144 970.41 75.624H976.044V67.776H971.724L971.67 69.612ZM982.291 65.4H985.189V73.608L991.201 65.4H993.937V78H991.057V69.81L985.045 78H982.291V65.4ZM1013.35 65.4V78H996.715V65.4H999.613V75.624H1003.59V65.4H1006.49V75.624H1010.45V65.4H1013.35ZM1016.92 74.652C1017.43 74.652 1017.84 74.814 1018.16 75.138C1018.49 75.45 1018.65 75.864 1018.65 76.38C1018.65 76.62 1018.62 76.86 1018.56 77.1C1018.5 77.34 1018.37 77.7 1018.16 78.18L1017.14 80.772H1015.36L1016.15 77.91C1015.85 77.79 1015.61 77.598 1015.43 77.334C1015.26 77.058 1015.18 76.74 1015.18 76.38C1015.18 75.864 1015.34 75.45 1015.66 75.138C1016 74.814 1016.42 74.652 1016.92 74.652ZM1030.08 72.924H1028.06V78H1025.17V65.4H1028.06V70.494H1030.15L1033.46 65.4H1036.54L1032.42 71.484L1036.67 78H1033.36L1030.08 72.924ZM1043.63 78.216C1042.32 78.216 1041.14 77.934 1040.09 77.37C1039.04 76.806 1038.22 76.032 1037.62 75.048C1037.03 74.052 1036.74 72.936 1036.74 71.7C1036.74 70.464 1037.03 69.354 1037.62 68.37C1038.22 67.374 1039.04 66.594 1040.09 66.03C1041.14 65.466 1042.32 65.184 1043.63 65.184C1044.94 65.184 1046.12 65.466 1047.16 66.03C1048.2 66.594 1049.03 67.374 1049.63 68.37C1050.23 69.354 1050.53 70.464 1050.53 71.7C1050.53 72.936 1050.23 74.052 1049.63 75.048C1049.03 76.032 1048.2 76.806 1047.16 77.37C1046.12 77.934 1044.94 78.216 1043.63 78.216ZM1043.63 75.732C1044.38 75.732 1045.05 75.564 1045.65 75.228C1046.25 74.88 1046.72 74.4 1047.05 73.788C1047.4 73.176 1047.57 72.48 1047.57 71.7C1047.57 70.92 1047.4 70.224 1047.05 69.612C1046.72 69 1046.25 68.526 1045.65 68.19C1045.05 67.842 1044.38 67.668 1043.63 67.668C1042.89 67.668 1042.22 67.842 1041.62 68.19C1041.02 68.526 1040.54 69 1040.19 69.612C1039.86 70.224 1039.69 70.92 1039.69 71.7C1039.69 72.48 1039.86 73.176 1040.19 73.788C1040.54 74.4 1041.02 74.88 1041.62 75.228C1042.22 75.564 1042.89 75.732 1043.63 75.732ZM1052.41 65.4H1055.31V73.608L1061.32 65.4H1064.06V78H1061.18V69.81L1055.17 78H1052.41V65.4ZM1058.23 64.59C1055.92 64.59 1054.76 63.672 1054.73 61.836H1056.73C1056.76 62.712 1057.25 63.15 1058.23 63.15C1058.71 63.15 1059.07 63.042 1059.32 62.826C1059.58 62.598 1059.71 62.268 1059.72 61.836H1061.72C1061.71 62.736 1061.41 63.42 1060.84 63.888C1060.26 64.356 1059.39 64.59 1058.23 64.59ZM1081.33 75.66V78H1071.57V65.4H1081.1V67.74H1074.47V70.476H1080.32V72.744H1074.47V75.66H1081.33ZM1097.69 67.776H1093.66V78H1090.78V67.776H1086.77V65.4H1097.69V67.776ZM1105 78.216C1103.69 78.216 1102.51 77.934 1101.45 77.37C1100.41 76.806 1099.59 76.032 1098.99 75.048C1098.4 74.052 1098.11 72.936 1098.11 71.7C1098.11 70.464 1098.4 69.354 1098.99 68.37C1099.59 67.374 1100.41 66.594 1101.45 66.03C1102.51 65.466 1103.69 65.184 1105 65.184C1106.31 65.184 1107.48 65.466 1108.53 66.03C1109.57 66.594 1110.39 67.374 1110.99 68.37C1111.59 69.354 1111.89 70.464 1111.89 71.7C1111.89 72.936 1111.59 74.052 1110.99 75.048C1110.39 76.032 1109.57 76.806 1108.53 77.37C1107.48 77.934 1106.31 78.216 1105 78.216ZM1105 75.732C1105.74 75.732 1106.42 75.564 1107.02 75.228C1107.62 74.88 1108.08 74.4 1108.42 73.788C1108.77 73.176 1108.94 72.48 1108.94 71.7C1108.94 70.92 1108.77 70.224 1108.42 69.612C1108.08 69 1107.62 68.526 1107.02 68.19C1106.42 67.842 1105.74 67.668 1105 67.668C1104.26 67.668 1103.58 67.842 1102.98 68.19C1102.38 68.526 1101.91 69 1101.56 69.612C1101.23 70.224 1101.06 70.92 1101.06 71.7C1101.06 72.48 1101.23 73.176 1101.56 73.788C1101.91 74.4 1102.38 74.88 1102.98 75.228C1103.58 75.564 1104.26 75.732 1105 75.732ZM1113.78 65.4H1116.68V73.608L1122.69 65.4H1125.43V78H1122.55V69.81L1116.53 78H1113.78V65.4ZM1119.59 64.59C1117.29 64.59 1116.13 63.672 1116.1 61.836H1118.1C1118.12 62.712 1118.62 63.15 1119.59 63.15C1120.07 63.15 1120.44 63.042 1120.69 62.826C1120.94 62.598 1121.08 62.268 1121.09 61.836H1123.09C1123.07 62.736 1122.78 63.42 1122.2 63.888C1121.63 64.356 1120.76 64.59 1119.59 64.59ZM272.125 99.808H277.219V102.058H272.125V99.808ZM295.542 106L295.524 98.458L291.816 104.668H290.52L286.812 98.602V106H284.076V93.4H286.488L291.204 101.23L295.848 93.4H298.26L298.278 106H295.542ZM307.06 106.216C305.752 106.216 304.57 105.934 303.514 105.37C302.47 104.806 301.648 104.032 301.048 103.048C300.46 102.052 300.166 100.936 300.166 99.7C300.166 98.464 300.46 97.354 301.048 96.37C301.648 95.374 302.47 94.594 303.514 94.03C304.57 93.466 305.752 93.184 307.06 93.184C308.368 93.184 309.544 93.466 310.588 94.03C311.632 94.594 312.454 95.374 313.054 96.37C313.654 97.354 313.954 98.464 313.954 99.7C313.954 100.936 313.654 102.052 313.054 103.048C312.454 104.032 311.632 104.806 310.588 105.37C309.544 105.934 308.368 106.216 307.06 106.216ZM307.06 103.732C307.804 103.732 308.476 103.564 309.076 103.228C309.676 102.88 310.144 102.4 310.48 101.788C310.828 101.176 311.002 100.48 311.002 99.7C311.002 98.92 310.828 98.224 310.48 97.612C310.144 97 309.676 96.526 309.076 96.19C308.476 95.842 307.804 95.668 307.06 95.668C306.316 95.668 305.644 95.842 305.044 96.19C304.444 96.526 303.97 97 303.622 97.612C303.286 98.224 303.118 98.92 303.118 99.7C303.118 100.48 303.286 101.176 303.622 101.788C303.97 102.4 304.444 102.88 305.044 103.228C305.644 103.564 306.316 103.732 307.06 103.732ZM326.814 100.924H324.978V106H322.116V100.924H320.244L317.418 106H314.052L317.832 99.412L314.286 93.4H317.364L320.19 98.494H322.116V93.4H324.978V98.494H326.85L329.694 93.4H332.772L329.244 99.412L333.006 106H329.64L326.814 100.924ZM343.799 103.66V106H334.043V93.4H343.565V95.74H336.941V98.476H342.791V100.744H336.941V103.66H343.799ZM362.427 93.4V106H345.795V93.4H348.693V103.624H352.671V93.4H355.569V103.624H359.529V93.4H362.427ZM382.926 103.624V108.61H380.226V106H371.334V108.61H368.634L368.652 103.624H369.156C369.912 103.6 370.446 103.048 370.758 101.968C371.07 100.888 371.262 99.346 371.334 97.342L371.478 93.4H381.162V103.624H382.926ZM373.908 97.612C373.848 99.112 373.722 100.372 373.53 101.392C373.338 102.4 373.044 103.144 372.648 103.624H378.282V95.776H373.962L373.908 97.612ZM393.166 103.3H387.316L386.2 106H383.212L388.828 93.4H391.708L397.342 106H394.282L393.166 103.3ZM392.248 101.086L390.25 96.262L388.252 101.086H392.248ZM409.349 106.216C408.065 106.216 406.901 105.94 405.857 105.388C404.825 104.824 404.009 104.05 403.409 103.066C402.821 102.07 402.527 100.948 402.527 99.7C402.527 98.452 402.821 97.336 403.409 96.352C404.009 95.356 404.825 94.582 405.857 94.03C406.901 93.466 408.071 93.184 409.367 93.184C410.459 93.184 411.443 93.376 412.319 93.76C413.207 94.144 413.951 94.696 414.551 95.416L412.679 97.144C411.827 96.16 410.771 95.668 409.511 95.668C408.731 95.668 408.035 95.842 407.423 96.19C406.811 96.526 406.331 97 405.983 97.612C405.647 98.224 405.479 98.92 405.479 99.7C405.479 100.48 405.647 101.176 405.983 101.788C406.331 102.4 406.811 102.88 407.423 103.228C408.035 103.564 408.731 103.732 409.511 103.732C410.771 103.732 411.827 103.234 412.679 102.238L414.551 103.966C413.951 104.698 413.207 105.256 412.319 105.64C411.431 106.024 410.441 106.216 409.349 106.216ZM425.848 103.66V106H416.092V93.4H425.614V95.74H418.99V98.476H424.84V100.744H418.99V103.66H425.848ZM441.311 99.43C442.079 99.658 442.667 100.03 443.075 100.546C443.483 101.062 443.687 101.698 443.687 102.454C443.687 103.57 443.261 104.44 442.409 105.064C441.569 105.688 440.363 106 438.791 106H432.581V93.4H438.449C439.913 93.4 441.053 93.682 441.869 94.246C442.685 94.81 443.093 95.614 443.093 96.658C443.093 97.282 442.937 97.834 442.625 98.314C442.313 98.782 441.875 99.154 441.311 99.43ZM435.479 98.62H438.197C438.833 98.62 439.313 98.494 439.637 98.242C439.961 97.978 440.123 97.594 440.123 97.09C440.123 96.598 439.955 96.22 439.619 95.956C439.295 95.692 438.821 95.56 438.197 95.56H435.479V98.62ZM438.683 103.84C440.051 103.84 440.735 103.3 440.735 102.22C440.735 101.176 440.051 100.654 438.683 100.654H435.479V103.84H438.683ZM453.809 97.54C455.345 97.54 456.521 97.882 457.337 98.566C458.153 99.25 458.561 100.264 458.561 101.608C458.561 103.036 458.105 104.128 457.193 104.884C456.293 105.628 455.021 106 453.377 106H447.707V95.776H444.161V93.4H450.587V97.54H453.809ZM453.215 103.84C453.983 103.84 454.577 103.654 454.997 103.282C455.417 102.91 455.627 102.37 455.627 101.662C455.627 100.354 454.823 99.7 453.215 99.7H450.587V103.84H453.215ZM465.756 93.4C466.872 93.4 467.838 93.586 468.654 93.958C469.482 94.33 470.118 94.858 470.562 95.542C471.006 96.226 471.228 97.036 471.228 97.972C471.228 98.896 471.006 99.706 470.562 100.402C470.118 101.086 469.482 101.614 468.654 101.986C467.838 102.346 466.872 102.526 465.756 102.526H463.218V106H460.302V93.4H465.756ZM465.594 100.15C466.47 100.15 467.136 99.964 467.592 99.592C468.048 99.208 468.276 98.668 468.276 97.972C468.276 97.264 468.048 96.724 467.592 96.352C467.136 95.968 466.47 95.776 465.594 95.776H463.218V100.15H465.594ZM484.348 93.4V106H481.432V100.834H475.708V106H472.792V93.4H475.708V98.368H481.432V93.4H484.348ZM496.9 103.66V106H487.144V93.4H496.666V95.74H490.042V98.476H495.892V100.744H490.042V103.66H496.9ZM515.528 93.4V106H498.896V93.4H501.794V103.624H505.772V93.4H508.67V103.624H512.63V93.4H515.528ZM534.587 93.4V106H531.671V100.834H525.947V106H523.031V93.4H525.947V98.368H531.671V93.4H534.587ZM545.916 103.3H540.066L538.95 106H535.962L541.578 93.4H544.458L550.092 106H547.032L545.916 103.3ZM544.998 101.086L543 96.262L541.002 101.086H544.998ZM567.517 93.4L562.153 103.372C561.637 104.332 561.013 105.058 560.281 105.55C559.561 106.042 558.775 106.288 557.923 106.288C557.263 106.288 556.579 106.144 555.871 105.856L556.573 103.642C557.077 103.798 557.497 103.876 557.833 103.876C558.193 103.876 558.517 103.792 558.805 103.624C559.093 103.444 559.357 103.168 559.597 102.796L559.705 102.652L554.737 93.4H557.851L561.199 100.168L564.655 93.4H567.517ZM573.996 93.4C575.112 93.4 576.078 93.586 576.894 93.958C577.722 94.33 578.358 94.858 578.802 95.542C579.246 96.226 579.468 97.036 579.468 97.972C579.468 98.896 579.246 99.706 578.802 100.402C578.358 101.086 577.722 101.614 576.894 101.986C576.078 102.346 575.112 102.526 573.996 102.526H571.458V106H568.542V93.4H573.996ZM573.834 100.15C574.71 100.15 575.376 99.964 575.832 99.592C576.288 99.208 576.516 98.668 576.516 97.972C576.516 97.264 576.288 96.724 575.832 96.352C575.376 95.968 574.71 95.776 573.834 95.776H571.458V100.15H573.834ZM587.22 106.216C585.912 106.216 584.73 105.934 583.674 105.37C582.63 104.806 581.808 104.032 581.208 103.048C580.62 102.052 580.326 100.936 580.326 99.7C580.326 98.464 580.62 97.354 581.208 96.37C581.808 95.374 582.63 94.594 583.674 94.03C584.73 93.466 585.912 93.184 587.22 93.184C588.528 93.184 589.704 93.466 590.748 94.03C591.792 94.594 592.614 95.374 593.214 96.37C593.814 97.354 594.114 98.464 594.114 99.7C594.114 100.936 593.814 102.052 593.214 103.048C592.614 104.032 591.792 104.806 590.748 105.37C589.704 105.934 588.528 106.216 587.22 106.216ZM587.22 103.732C587.964 103.732 588.636 103.564 589.236 103.228C589.836 102.88 590.304 102.4 590.64 101.788C590.988 101.176 591.162 100.48 591.162 99.7C591.162 98.92 590.988 98.224 590.64 97.612C590.304 97 589.836 96.526 589.236 96.19C588.636 95.842 587.964 95.668 587.22 95.668C586.476 95.668 585.804 95.842 585.204 96.19C584.604 96.526 584.13 97 583.782 97.612C583.446 98.224 583.278 98.92 583.278 99.7C583.278 100.48 583.446 101.176 583.782 101.788C584.13 102.4 584.604 102.88 585.204 103.228C585.804 103.564 586.476 103.732 587.22 103.732ZM609.212 103.624V108.664H606.53V106H596V93.4H598.898V103.624H604.514V93.4H607.412V103.624H609.212ZM610.775 93.4H613.673V101.608L619.685 93.4H622.421V106H619.541V97.81L613.529 106H610.775V93.4ZM634.828 95.776H630.796V106H627.916V95.776H623.902V93.4H634.828V95.776ZM646.055 103.66V106H636.299V93.4H645.821V95.74H639.197V98.476H645.047V100.744H639.197V103.66H646.055ZM652.788 93.4H655.686V101.608L661.698 93.4H664.434V106H661.554V97.81L655.542 106H652.788V93.4ZM684.945 103.624V108.61H682.245V106H673.353V108.61H670.653L670.671 103.624H671.175C671.931 103.6 672.465 103.048 672.777 101.968C673.089 100.888 673.281 99.346 673.353 97.342L673.497 93.4H683.181V103.624H684.945ZM675.927 97.612C675.867 99.112 675.741 100.372 675.549 101.392C675.357 102.4 675.063 103.144 674.667 103.624H680.301V95.776H675.981L675.927 97.612ZM695.185 103.3H689.335L688.219 106H685.231L690.847 93.4H693.727L699.361 106H696.301L695.185 103.3ZM694.267 101.086L692.269 96.262L690.271 101.086H694.267ZM712.574 99.43C713.306 99.682 713.876 100.078 714.284 100.618C714.704 101.146 714.914 101.764 714.914 102.472C714.914 103.24 714.662 103.906 714.158 104.47C713.654 105.034 712.97 105.466 712.106 105.766C711.254 106.066 710.318 106.216 709.298 106.216C708.434 106.216 707.57 106.108 706.706 105.892C705.854 105.676 705.044 105.346 704.276 104.902L705.176 102.814C705.728 103.15 706.334 103.408 706.994 103.588C707.666 103.756 708.32 103.84 708.956 103.84C709.82 103.84 710.534 103.684 711.098 103.372C711.674 103.06 711.962 102.622 711.962 102.058C711.962 101.59 711.764 101.236 711.368 100.996C710.984 100.756 710.456 100.636 709.784 100.636H706.706V98.44H709.568C710.156 98.44 710.612 98.32 710.936 98.08C711.272 97.84 711.44 97.51 711.44 97.09C711.44 96.598 711.2 96.214 710.72 95.938C710.252 95.662 709.646 95.524 708.902 95.524C708.35 95.524 707.78 95.602 707.192 95.758C706.604 95.902 706.046 96.124 705.518 96.424L704.636 94.156C705.968 93.472 707.408 93.13 708.956 93.13C709.94 93.13 710.846 93.274 711.674 93.562C712.502 93.85 713.162 94.27 713.654 94.822C714.146 95.374 714.392 96.016 714.392 96.748C714.392 97.348 714.23 97.882 713.906 98.35C713.582 98.818 713.138 99.178 712.574 99.43ZM725.394 103.3H719.544L718.428 106H715.44L721.056 93.4H723.936L729.57 106H726.51L725.394 103.3ZM724.476 101.086L722.478 96.262L720.48 101.086H724.476ZM739.878 95.776H735.846V106H732.966V95.776H728.952V93.4H739.878V95.776ZM750.079 99.43C750.847 99.658 751.435 100.03 751.843 100.546C752.251 101.062 752.455 101.698 752.455 102.454C752.455 103.57 752.029 104.44 751.177 105.064C750.337 105.688 749.131 106 747.559 106H741.349V93.4H747.217C748.681 93.4 749.821 93.682 750.637 94.246C751.453 94.81 751.861 95.614 751.861 96.658C751.861 97.282 751.705 97.834 751.393 98.314C751.081 98.782 750.643 99.154 750.079 99.43ZM744.247 98.62H746.965C747.601 98.62 748.081 98.494 748.405 98.242C748.729 97.978 748.891 97.594 748.891 97.09C748.891 96.598 748.723 96.22 748.387 95.956C748.063 95.692 747.589 95.56 746.965 95.56H744.247V98.62ZM747.451 103.84C748.819 103.84 749.503 103.3 749.503 102.22C749.503 101.176 748.819 100.654 747.451 100.654H744.247V103.84H747.451ZM762.578 97.54C764.114 97.54 765.29 97.882 766.106 98.566C766.922 99.25 767.33 100.264 767.33 101.608C767.33 103.036 766.874 104.128 765.962 104.884C765.062 105.628 763.79 106 762.146 106H756.476V95.776H752.93V93.4H759.356V97.54H762.578ZM761.984 103.84C762.752 103.84 763.346 103.654 763.766 103.282C764.186 102.91 764.396 102.37 764.396 101.662C764.396 100.354 763.592 99.7 761.984 99.7H759.356V103.84H761.984ZM774.525 93.4C775.641 93.4 776.607 93.586 777.423 93.958C778.251 94.33 778.887 94.858 779.331 95.542C779.775 96.226 779.997 97.036 779.997 97.972C779.997 98.896 779.775 99.706 779.331 100.402C778.887 101.086 778.251 101.614 777.423 101.986C776.607 102.346 775.641 102.526 774.525 102.526H771.987V106H769.071V93.4H774.525ZM774.363 100.15C775.239 100.15 775.905 99.964 776.361 99.592C776.817 99.208 777.045 98.668 777.045 97.972C777.045 97.264 776.817 96.724 776.361 96.352C775.905 95.968 775.239 95.776 774.363 95.776H771.987V100.15H774.363ZM793.959 103.624V108.61H791.259V106H782.367V108.61H779.667L779.685 103.624H780.189C780.945 103.6 781.479 103.048 781.791 101.968C782.103 100.888 782.295 99.346 782.367 97.342L782.511 93.4H792.195V103.624H793.959ZM784.941 97.612C784.881 99.112 784.755 100.372 784.563 101.392C784.371 102.4 784.077 103.144 783.681 103.624H789.315V95.776H784.995L784.941 97.612ZM795.562 93.4H798.46V101.608L804.472 93.4H807.208V106H804.328V97.81L798.316 106H795.562V93.4ZM826.617 93.4V106H809.985V93.4H812.883V103.624H816.861V93.4H819.759V103.624H823.719V93.4H826.617ZM841.285 99.43C842.017 99.682 842.587 100.078 842.995 100.618C843.415 101.146 843.625 101.764 843.625 102.472C843.625 103.24 843.373 103.906 842.869 104.47C842.365 105.034 841.681 105.466 840.817 105.766C839.965 106.066 839.029 106.216 838.009 106.216C837.145 106.216 836.281 106.108 835.417 105.892C834.565 105.676 833.755 105.346 832.987 104.902L833.887 102.814C834.439 103.15 835.045 103.408 835.705 103.588C836.377 103.756 837.031 103.84 837.667 103.84C838.531 103.84 839.245 103.684 839.809 103.372C840.385 103.06 840.673 102.622 840.673 102.058C840.673 101.59 840.475 101.236 840.079 100.996C839.695 100.756 839.167 100.636 838.495 100.636H835.417V98.44H838.279C838.867 98.44 839.323 98.32 839.647 98.08C839.983 97.84 840.151 97.51 840.151 97.09C840.151 96.598 839.911 96.214 839.431 95.938C838.963 95.662 838.357 95.524 837.613 95.524C837.061 95.524 836.491 95.602 835.903 95.758C835.315 95.902 834.757 96.124 834.229 96.424L833.347 94.156C834.679 93.472 836.119 93.13 837.667 93.13C838.651 93.13 839.557 93.274 840.385 93.562C841.213 93.85 841.873 94.27 842.365 94.822C842.857 95.374 843.103 96.016 843.103 96.748C843.103 97.348 842.941 97.882 842.617 98.35C842.293 98.818 841.849 99.178 841.285 99.43ZM857.129 93.4V106H854.213V100.834H848.489V106H845.573V93.4H848.489V98.368H854.213V93.4H857.129ZM868.458 103.3H862.608L861.492 106H858.504L864.12 93.4H867L872.634 106H869.574L868.458 103.3ZM867.54 101.086L865.542 96.262L863.544 101.086H867.54ZM885.501 93.4V106H882.585V100.834H876.861V106H873.945V93.4H876.861V98.368H882.585V93.4H885.501ZM888.298 93.4H891.196V101.608L897.208 93.4H899.944V106H897.064V97.81L891.052 106H888.298V93.4ZM912.783 93.4V106H909.903V102.652H907.239L905.007 106H901.929L904.557 102.202C903.705 101.854 903.051 101.332 902.595 100.636C902.139 99.928 901.911 99.082 901.911 98.098C901.911 97.126 902.133 96.292 902.577 95.596C903.021 94.888 903.651 94.348 904.467 93.976C905.283 93.592 906.243 93.4 907.347 93.4H912.783ZM907.419 95.776C906.591 95.776 905.955 95.968 905.511 96.352C905.079 96.736 904.863 97.306 904.863 98.062C904.863 98.794 905.073 99.358 905.493 99.754C905.913 100.15 906.531 100.348 907.347 100.348H909.903V95.776H907.419ZM925.21 95.776H921.178V106H918.298V95.776H914.284V93.4H925.21V95.776ZM934.58 103.3H928.73L927.614 106H924.626L930.242 93.4H933.122L938.756 106H935.696L934.58 103.3ZM933.662 101.086L931.664 96.262L929.666 101.086H933.662ZM950.762 106.216C949.478 106.216 948.314 105.94 947.27 105.388C946.238 104.824 945.422 104.05 944.822 103.066C944.234 102.07 943.94 100.948 943.94 99.7C943.94 98.452 944.234 97.336 944.822 96.352C945.422 95.356 946.238 94.582 947.27 94.03C948.314 93.466 949.484 93.184 950.78 93.184C951.872 93.184 952.856 93.376 953.732 93.76C954.62 94.144 955.364 94.696 955.964 95.416L954.092 97.144C953.24 96.16 952.184 95.668 950.924 95.668C950.144 95.668 949.448 95.842 948.836 96.19C948.224 96.526 947.744 97 947.396 97.612C947.06 98.224 946.892 98.92 946.892 99.7C946.892 100.48 947.06 101.176 947.396 101.788C947.744 102.4 948.224 102.88 948.836 103.228C949.448 103.564 950.144 103.732 950.924 103.732C952.184 103.732 953.24 103.234 954.092 102.238L955.964 103.966C955.364 104.698 954.62 105.256 953.732 105.64C952.844 106.024 951.854 106.216 950.762 106.216ZM957.505 93.4H960.403V101.608L966.415 93.4H969.151V106H966.271V97.81L960.259 106H957.505V93.4ZM972.72 106.144C972.228 106.144 971.814 105.976 971.478 105.64C971.142 105.304 970.974 104.884 970.974 104.38C970.974 103.864 971.142 103.45 971.478 103.138C971.814 102.814 972.228 102.652 972.72 102.652C973.212 102.652 973.626 102.814 973.962 103.138C974.298 103.45 974.466 103.864 974.466 104.38C974.466 104.884 974.298 105.304 973.962 105.64C973.626 105.976 973.212 106.144 972.72 106.144ZM277.845 122.4V135H274.947V124.776H269.259V135H266.361V122.4H277.845ZM286.621 135.216C285.313 135.216 284.131 134.934 283.075 134.37C282.031 133.806 281.209 133.032 280.609 132.048C280.021 131.052 279.727 129.936 279.727 128.7C279.727 127.464 280.021 126.354 280.609 125.37C281.209 124.374 282.031 123.594 283.075 123.03C284.131 122.466 285.313 122.184 286.621 122.184C287.929 122.184 289.105 122.466 290.149 123.03C291.193 123.594 292.015 124.374 292.615 125.37C293.215 126.354 293.515 127.464 293.515 128.7C293.515 129.936 293.215 131.052 292.615 132.048C292.015 133.032 291.193 133.806 290.149 134.37C289.105 134.934 287.929 135.216 286.621 135.216ZM286.621 132.732C287.365 132.732 288.037 132.564 288.637 132.228C289.237 131.88 289.705 131.4 290.041 130.788C290.389 130.176 290.563 129.48 290.563 128.7C290.563 127.92 290.389 127.224 290.041 126.612C289.705 126 289.237 125.526 288.637 125.19C288.037 124.842 287.365 124.668 286.621 124.668C285.877 124.668 285.205 124.842 284.605 125.19C284.005 125.526 283.531 126 283.183 126.612C282.847 127.224 282.679 127.92 282.679 128.7C282.679 129.48 282.847 130.176 283.183 130.788C283.531 131.4 284.005 131.88 284.605 132.228C285.205 132.564 285.877 132.732 286.621 132.732ZM294.841 128.808H299.935V131.058H294.841V128.808ZM306.933 129.924H304.917V135H302.019V122.4H304.917V127.494H307.005L310.317 122.4H313.395L309.273 128.484L313.521 135H310.209L306.933 129.924ZM322.738 126.54C324.274 126.54 325.45 126.882 326.266 127.566C327.082 128.25 327.49 129.264 327.49 130.608C327.49 132.036 327.034 133.128 326.122 133.884C325.222 134.628 323.95 135 322.306 135H316.636V124.776H313.09V122.4H319.516V126.54H322.738ZM322.144 132.84C322.912 132.84 323.506 132.654 323.926 132.282C324.346 131.91 324.556 131.37 324.556 130.662C324.556 129.354 323.752 128.7 322.144 128.7H319.516V132.84H322.144ZM335.189 135.216C333.905 135.216 332.741 134.94 331.697 134.388C330.665 133.824 329.849 133.05 329.249 132.066C328.661 131.07 328.367 129.948 328.367 128.7C328.367 127.452 328.661 126.336 329.249 125.352C329.849 124.356 330.665 123.582 331.697 123.03C332.741 122.466 333.911 122.184 335.207 122.184C336.299 122.184 337.283 122.376 338.159 122.76C339.047 123.144 339.791 123.696 340.391 124.416L338.519 126.144C337.667 125.16 336.611 124.668 335.351 124.668C334.571 124.668 333.875 124.842 333.263 125.19C332.651 125.526 332.171 126 331.823 126.612C331.487 127.224 331.319 127.92 331.319 128.7C331.319 129.48 331.487 130.176 331.823 130.788C332.171 131.4 332.651 131.88 333.263 132.228C333.875 132.564 334.571 132.732 335.351 132.732C336.611 132.732 337.667 132.234 338.519 131.238L340.391 132.966C339.791 133.698 339.047 134.256 338.159 134.64C337.271 135.024 336.281 135.216 335.189 135.216ZM353.488 122.4V135H350.572V129.834H344.848V135H341.932V122.4H344.848V127.368H350.572V122.4H353.488ZM362.296 135.216C360.988 135.216 359.806 134.934 358.75 134.37C357.706 133.806 356.884 133.032 356.284 132.048C355.696 131.052 355.402 129.936 355.402 128.7C355.402 127.464 355.696 126.354 356.284 125.37C356.884 124.374 357.706 123.594 358.75 123.03C359.806 122.466 360.988 122.184 362.296 122.184C363.604 122.184 364.78 122.466 365.824 123.03C366.868 123.594 367.69 124.374 368.29 125.37C368.89 126.354 369.19 127.464 369.19 128.7C369.19 129.936 368.89 131.052 368.29 132.048C367.69 133.032 366.868 133.806 365.824 134.37C364.78 134.934 363.604 135.216 362.296 135.216ZM362.296 132.732C363.04 132.732 363.712 132.564 364.312 132.228C364.912 131.88 365.38 131.4 365.716 130.788C366.064 130.176 366.238 129.48 366.238 128.7C366.238 127.92 366.064 127.224 365.716 126.612C365.38 126 364.912 125.526 364.312 125.19C363.712 124.842 363.04 124.668 362.296 124.668C361.552 124.668 360.88 124.842 360.28 125.19C359.68 125.526 359.206 126 358.858 126.612C358.522 127.224 358.354 127.92 358.354 128.7C358.354 129.48 358.522 130.176 358.858 130.788C359.206 131.4 359.68 131.88 360.28 132.228C360.88 132.564 361.552 132.732 362.296 132.732ZM388.81 132.624V137.61H386.11V135H377.218V137.61H374.518L374.536 132.624H375.04C375.796 132.6 376.33 132.048 376.642 130.968C376.954 129.888 377.146 128.346 377.218 126.342L377.362 122.4H387.046V132.624H388.81ZM379.792 126.612C379.732 128.112 379.606 129.372 379.414 130.392C379.222 131.4 378.928 132.144 378.532 132.624H384.166V124.776H379.846L379.792 126.612ZM399.051 132.3H393.201L392.085 135H389.097L394.713 122.4H397.593L403.227 135H400.167L399.051 132.3ZM398.133 130.086L396.135 125.262L394.137 130.086H398.133ZM418.959 132.66V135H409.203V122.4H418.725V124.74H412.101V127.476H417.951V129.744H412.101V132.66H418.959ZM432.224 122.4V135H429.344V124.776H425.024L424.934 127.404C424.874 129.192 424.73 130.644 424.502 131.76C424.274 132.864 423.89 133.716 423.35 134.316C422.822 134.904 422.078 135.198 421.118 135.198C420.722 135.198 420.242 135.132 419.678 135L419.858 132.534C420.014 132.582 420.188 132.606 420.38 132.606C421.076 132.606 421.562 132.198 421.838 131.382C422.114 130.554 422.288 129.264 422.36 127.512L422.54 122.4H432.224ZM443.543 132.3H437.693L436.577 135H433.589L439.205 122.4H442.085L447.719 135H444.659L443.543 132.3ZM442.625 130.086L440.627 125.262L438.629 130.086H442.625ZM459.779 135.216C458.471 135.216 457.289 134.934 456.233 134.37C455.189 133.806 454.367 133.032 453.767 132.048C453.179 131.052 452.885 129.936 452.885 128.7C452.885 127.464 453.179 126.354 453.767 125.37C454.367 124.374 455.189 123.594 456.233 123.03C457.289 122.466 458.471 122.184 459.779 122.184C461.087 122.184 462.263 122.466 463.307 123.03C464.351 123.594 465.173 124.374 465.773 125.37C466.373 126.354 466.673 127.464 466.673 128.7C466.673 129.936 466.373 131.052 465.773 132.048C465.173 133.032 464.351 133.806 463.307 134.37C462.263 134.934 461.087 135.216 459.779 135.216ZM459.779 132.732C460.523 132.732 461.195 132.564 461.795 132.228C462.395 131.88 462.863 131.4 463.199 130.788C463.547 130.176 463.721 129.48 463.721 128.7C463.721 127.92 463.547 127.224 463.199 126.612C462.863 126 462.395 125.526 461.795 125.19C461.195 124.842 460.523 124.668 459.779 124.668C459.035 124.668 458.363 124.842 457.763 125.19C457.163 125.526 456.689 126 456.341 126.612C456.005 127.224 455.837 127.92 455.837 128.7C455.837 129.48 456.005 130.176 456.341 130.788C456.689 131.4 457.163 131.88 457.763 132.228C458.363 132.564 459.035 132.732 459.779 132.732ZM478.014 124.776H473.982V135H471.102V124.776H467.088V122.4H478.014V124.776ZM491.041 122.4V135H488.125V129.834H482.401V135H479.485V122.4H482.401V127.368H488.125V122.4H491.041ZM499.85 135.216C498.542 135.216 497.36 134.934 496.304 134.37C495.26 133.806 494.438 133.032 493.838 132.048C493.25 131.052 492.956 129.936 492.956 128.7C492.956 127.464 493.25 126.354 493.838 125.37C494.438 124.374 495.26 123.594 496.304 123.03C497.36 122.466 498.542 122.184 499.85 122.184C501.158 122.184 502.334 122.466 503.378 123.03C504.422 123.594 505.244 124.374 505.844 125.37C506.444 126.354 506.744 127.464 506.744 128.7C506.744 129.936 506.444 131.052 505.844 132.048C505.244 133.032 504.422 133.806 503.378 134.37C502.334 134.934 501.158 135.216 499.85 135.216ZM499.85 132.732C500.594 132.732 501.266 132.564 501.866 132.228C502.466 131.88 502.934 131.4 503.27 130.788C503.618 130.176 503.792 129.48 503.792 128.7C503.792 127.92 503.618 127.224 503.27 126.612C502.934 126 502.466 125.526 501.866 125.19C501.266 124.842 500.594 124.668 499.85 124.668C499.106 124.668 498.434 124.842 497.834 125.19C497.234 125.526 496.76 126 496.412 126.612C496.076 127.224 495.908 127.92 495.908 128.7C495.908 129.48 496.076 130.176 496.412 130.788C496.76 131.4 497.234 131.88 497.834 132.228C498.434 132.564 499.106 132.732 499.85 132.732ZM517.36 128.43C518.128 128.658 518.716 129.03 519.124 129.546C519.532 130.062 519.736 130.698 519.736 131.454C519.736 132.57 519.31 133.44 518.458 134.064C517.618 134.688 516.412 135 514.84 135H508.63V122.4H514.498C515.962 122.4 517.102 122.682 517.918 123.246C518.734 123.81 519.142 124.614 519.142 125.658C519.142 126.282 518.986 126.834 518.674 127.314C518.362 127.782 517.924 128.154 517.36 128.43ZM511.528 127.62H514.246C514.882 127.62 515.362 127.494 515.686 127.242C516.01 126.978 516.172 126.594 516.172 126.09C516.172 125.598 516.004 125.22 515.668 124.956C515.344 124.692 514.87 124.56 514.246 124.56H511.528V127.62ZM514.732 132.84C516.1 132.84 516.784 132.3 516.784 131.22C516.784 130.176 516.1 129.654 514.732 129.654H511.528V132.84H514.732ZM527.694 135.216C526.386 135.216 525.204 134.934 524.148 134.37C523.104 133.806 522.282 133.032 521.682 132.048C521.094 131.052 520.8 129.936 520.8 128.7C520.8 127.464 521.094 126.354 521.682 125.37C522.282 124.374 523.104 123.594 524.148 123.03C525.204 122.466 526.386 122.184 527.694 122.184C529.002 122.184 530.178 122.466 531.222 123.03C532.266 123.594 533.088 124.374 533.688 125.37C534.288 126.354 534.588 127.464 534.588 128.7C534.588 129.936 534.288 131.052 533.688 132.048C533.088 133.032 532.266 133.806 531.222 134.37C530.178 134.934 529.002 135.216 527.694 135.216ZM527.694 132.732C528.438 132.732 529.11 132.564 529.71 132.228C530.31 131.88 530.778 131.4 531.114 130.788C531.462 130.176 531.636 129.48 531.636 128.7C531.636 127.92 531.462 127.224 531.114 126.612C530.778 126 530.31 125.526 529.71 125.19C529.11 124.842 528.438 124.668 527.694 124.668C526.95 124.668 526.278 124.842 525.678 125.19C525.078 125.526 524.604 126 524.256 126.612C523.92 127.224 523.752 127.92 523.752 128.7C523.752 129.48 523.92 130.176 524.256 130.788C524.604 131.4 525.078 131.88 525.678 132.228C526.278 132.564 526.95 132.732 527.694 132.732ZM550.842 124.776H546.81V135H543.93V124.776H539.916V122.4H550.842V124.776ZM563.144 122.4L557.78 132.372C557.264 133.332 556.64 134.058 555.908 134.55C555.188 135.042 554.402 135.288 553.55 135.288C552.89 135.288 552.206 135.144 551.498 134.856L552.2 132.642C552.704 132.798 553.124 132.876 553.46 132.876C553.82 132.876 554.144 132.792 554.432 132.624C554.72 132.444 554.984 132.168 555.224 131.796L555.332 131.652L550.364 122.4H553.478L556.826 129.168L560.282 122.4H563.144ZM569.048 129.924H567.032V135H564.134V122.4H567.032V127.494H569.12L572.432 122.4H575.51L571.388 128.484L575.636 135H572.324L569.048 129.924ZM588.948 128.43C589.68 128.682 590.25 129.078 590.658 129.618C591.078 130.146 591.288 130.764 591.288 131.472C591.288 132.24 591.036 132.906 590.532 133.47C590.028 134.034 589.344 134.466 588.48 134.766C587.628 135.066 586.692 135.216 585.672 135.216C584.808 135.216 583.944 135.108 583.08 134.892C582.228 134.676 581.418 134.346 580.65 133.902L581.55 131.814C582.102 132.15 582.708 132.408 583.368 132.588C584.04 132.756 584.694 132.84 585.33 132.84C586.194 132.84 586.908 132.684 587.472 132.372C588.048 132.06 588.336 131.622 588.336 131.058C588.336 130.59 588.138 130.236 587.742 129.996C587.358 129.756 586.83 129.636 586.158 129.636H583.08V127.44H585.942C586.53 127.44 586.986 127.32 587.31 127.08C587.646 126.84 587.814 126.51 587.814 126.09C587.814 125.598 587.574 125.214 587.094 124.938C586.626 124.662 586.02 124.524 585.276 124.524C584.724 124.524 584.154 124.602 583.566 124.758C582.978 124.902 582.42 125.124 581.892 125.424L581.01 123.156C582.342 122.472 583.782 122.13 585.33 122.13C586.314 122.13 587.22 122.274 588.048 122.562C588.876 122.85 589.536 123.27 590.028 123.822C590.52 124.374 590.766 125.016 590.766 125.748C590.766 126.348 590.604 126.882 590.28 127.35C589.956 127.818 589.512 128.178 588.948 128.43ZM601.768 132.3H595.918L594.802 135H591.814L597.43 122.4H600.31L605.944 135H602.884L601.768 132.3ZM600.85 130.086L598.852 125.262L596.854 130.086H600.85ZM624.989 132.624V137.61H622.289V135H613.397V137.61H610.697L610.715 132.624H611.219C611.975 132.6 612.509 132.048 612.821 130.968C613.133 129.888 613.325 128.346 613.397 126.342L613.541 122.4H623.225V132.624H624.989ZM615.971 126.612C615.911 128.112 615.785 129.372 615.593 130.392C615.401 131.4 615.107 132.144 614.711 132.624H620.345V124.776H616.025L615.971 126.612ZM635.229 132.3H629.379L628.263 135H625.275L630.891 122.4H633.771L639.405 135H636.345L635.229 132.3ZM634.311 130.086L632.313 125.262L630.315 130.086H634.311ZM651.412 135.216C650.128 135.216 648.964 134.94 647.92 134.388C646.888 133.824 646.072 133.05 645.472 132.066C644.884 131.07 644.59 129.948 644.59 128.7C644.59 127.452 644.884 126.336 645.472 125.352C646.072 124.356 646.888 123.582 647.92 123.03C648.964 122.466 650.134 122.184 651.43 122.184C652.522 122.184 653.506 122.376 654.382 122.76C655.27 123.144 656.014 123.696 656.614 124.416L654.742 126.144C653.89 125.16 652.834 124.668 651.574 124.668C650.794 124.668 650.098 124.842 649.486 125.19C648.874 125.526 648.394 126 648.046 126.612C647.71 127.224 647.542 127.92 647.542 128.7C647.542 129.48 647.71 130.176 648.046 130.788C648.394 131.4 648.874 131.88 649.486 132.228C650.098 132.564 650.794 132.732 651.574 132.732C652.834 132.732 653.89 132.234 654.742 131.238L656.614 132.966C656.014 133.698 655.27 134.256 654.382 134.64C653.494 135.024 652.504 135.216 651.412 135.216ZM666.383 126.54C667.919 126.54 669.095 126.882 669.911 127.566C670.727 128.25 671.135 129.264 671.135 130.608C671.135 132.036 670.679 133.128 669.767 133.884C668.867 134.628 667.595 135 665.951 135H660.281V124.776H656.735V122.4H663.161V126.54H666.383ZM665.789 132.84C666.557 132.84 667.151 132.654 667.571 132.282C667.991 131.91 668.201 131.37 668.201 130.662C668.201 129.354 667.397 128.7 665.789 128.7H663.161V132.84H665.789ZM672.876 122.4H683.046V124.722H675.774V127.314H679.266C680.79 127.314 681.948 127.632 682.74 128.268C683.544 128.904 683.946 129.822 683.946 131.022C683.946 132.282 683.502 133.26 682.614 133.956C681.726 134.652 680.472 135 678.852 135H672.876V122.4ZM678.69 132.84C679.434 132.84 680.004 132.696 680.4 132.408C680.796 132.108 680.994 131.676 680.994 131.112C680.994 130.008 680.226 129.456 678.69 129.456H675.774V132.84H678.69ZM695.561 132.66V135H685.805V122.4H695.327V124.74H688.703V127.476H694.553V129.744H688.703V132.66H695.561ZM703.011 122.4C704.127 122.4 705.093 122.586 705.909 122.958C706.737 123.33 707.373 123.858 707.817 124.542C708.261 125.226 708.483 126.036 708.483 126.972C708.483 127.896 708.261 128.706 707.817 129.402C707.373 130.086 706.737 130.614 705.909 130.986C705.093 131.346 704.127 131.526 703.011 131.526H700.473V135H697.557V122.4H703.011ZM702.849 129.15C703.725 129.15 704.391 128.964 704.847 128.592C705.303 128.208 705.531 127.668 705.531 126.972C705.531 126.264 705.303 125.724 704.847 125.352C704.391 124.968 703.725 124.776 702.849 124.776H700.473V129.15H702.849ZM719.802 132.66V135H710.046V122.4H719.568V124.74H712.944V127.476H718.794V129.744H712.944V132.66H719.802ZM738.43 122.4V135H721.798V122.4H724.696V132.624H728.674V122.4H731.572V132.624H735.532V122.4H738.43ZM757.399 135L757.381 127.458L753.673 133.668H752.377L748.669 127.602V135H745.933V122.4H748.345L753.061 130.23L757.705 122.4H760.117L760.135 135H757.399ZM771.437 132.3H765.587L764.471 135H761.483L767.099 122.4H769.979L775.613 135H772.553L771.437 132.3ZM770.519 130.086L768.521 125.262L766.523 130.086H770.519ZM781.802 129.924H779.786V135H776.888V122.4H779.786V127.494H781.874L785.186 122.4H788.264L784.142 128.484L788.39 135H785.078L781.802 129.924ZM795.301 135.216C794.017 135.216 792.853 134.94 791.809 134.388C790.777 133.824 789.961 133.05 789.361 132.066C788.773 131.07 788.479 129.948 788.479 128.7C788.479 127.452 788.773 126.336 789.361 125.352C789.961 124.356 790.777 123.582 791.809 123.03C792.853 122.466 794.023 122.184 795.319 122.184C796.411 122.184 797.395 122.376 798.271 122.76C799.159 123.144 799.903 123.696 800.503 124.416L798.631 126.144C797.779 125.16 796.723 124.668 795.463 124.668C794.683 124.668 793.987 124.842 793.375 125.19C792.763 125.526 792.283 126 791.935 126.612C791.599 127.224 791.431 127.92 791.431 128.7C791.431 129.48 791.599 130.176 791.935 130.788C792.283 131.4 792.763 131.88 793.375 132.228C793.987 132.564 794.683 132.732 795.463 132.732C796.723 132.732 797.779 132.234 798.631 131.238L800.503 132.966C799.903 133.698 799.159 134.256 798.271 134.64C797.383 135.024 796.393 135.216 795.301 135.216ZM802.044 122.4H804.942V130.608L810.954 122.4H813.69V135H810.81V126.81L804.798 135H802.044V122.4ZM827.933 135L827.915 127.458L824.207 133.668H822.911L819.203 127.602V135H816.467V122.4H818.879L823.595 130.23L828.239 122.4H830.651L830.669 135H827.933ZM841.971 132.3H836.121L835.005 135H832.017L837.633 122.4H840.513L846.147 135H843.087L841.971 132.3ZM841.053 130.086L839.055 125.262L837.057 130.086H841.053ZM858.795 122.4V135H855.915V124.776H851.595L851.505 127.404C851.445 129.192 851.301 130.644 851.073 131.76C850.845 132.864 850.461 133.716 849.921 134.316C849.393 134.904 848.649 135.198 847.689 135.198C847.293 135.198 846.813 135.132 846.249 135L846.429 132.534C846.585 132.582 846.759 132.606 846.951 132.606C847.647 132.606 848.133 132.198 848.409 131.382C848.685 130.554 848.859 129.264 848.931 127.512L849.111 122.4H858.795ZM873.138 122.4V135H870.222V129.834H864.498V135H861.582V122.4H864.498V127.368H870.222V122.4H873.138ZM875.935 122.4H878.833V130.608L884.845 122.4H887.581V135H884.701V126.81L878.689 135H875.935V122.4ZM899.989 124.776H895.957V135H893.077V124.776H889.063V122.4H899.989V124.776ZM911.215 132.66V135H901.459V122.4H910.981V124.74H904.357V127.476H910.207V129.744H904.357V132.66H911.215ZM927.578 124.776H923.546V135H920.666V124.776H916.652V122.4H927.578V124.776ZM934.886 135.216C933.578 135.216 932.396 134.934 931.34 134.37C930.296 133.806 929.474 133.032 928.874 132.048C928.286 131.052 927.992 129.936 927.992 128.7C927.992 127.464 928.286 126.354 928.874 125.37C929.474 124.374 930.296 123.594 931.34 123.03C932.396 122.466 933.578 122.184 934.886 122.184C936.194 122.184 937.37 122.466 938.414 123.03C939.458 123.594 940.28 124.374 940.88 125.37C941.48 126.354 941.78 127.464 941.78 128.7C941.78 129.936 941.48 131.052 940.88 132.048C940.28 133.032 939.458 133.806 938.414 134.37C937.37 134.934 936.194 135.216 934.886 135.216ZM934.886 132.732C935.63 132.732 936.302 132.564 936.902 132.228C937.502 131.88 937.97 131.4 938.306 130.788C938.654 130.176 938.828 129.48 938.828 128.7C938.828 127.92 938.654 127.224 938.306 126.612C937.97 126 937.502 125.526 936.902 125.19C936.302 124.842 935.63 124.668 934.886 124.668C934.142 124.668 933.47 124.842 932.87 125.19C932.27 125.526 931.796 126 931.448 126.612C931.112 127.224 930.944 127.92 930.944 128.7C930.944 129.48 931.112 130.176 931.448 130.788C931.796 131.4 932.27 131.88 932.87 132.228C933.47 132.564 934.142 132.732 934.886 132.732ZM953.752 122.4V135H950.872V130.464C949.78 130.86 948.766 131.058 947.83 131.058C946.138 131.058 944.842 130.656 943.942 129.852C943.042 129.036 942.592 127.866 942.592 126.342V122.4H945.472V126.018C945.472 126.882 945.7 127.536 946.156 127.98C946.624 128.412 947.296 128.628 948.172 128.628C949.132 128.628 950.032 128.442 950.872 128.07V122.4H953.752ZM961.403 129.924H959.387V135H956.489V122.4H959.387V127.494H961.475L964.787 122.4H967.865L963.743 128.484L967.991 135H964.679L961.403 129.924ZM968.997 122.4H971.895V130.608L977.907 122.4H980.643V135H977.763V126.81L971.751 135H968.997V122.4ZM984.212 135.144C983.72 135.144 983.306 134.976 982.97 134.64C982.634 134.304 982.466 133.884 982.466 133.38C982.466 132.864 982.634 132.45 982.97 132.138C983.306 131.814 983.72 131.652 984.212 131.652C984.704 131.652 985.118 131.814 985.454 132.138C985.79 132.45 985.958 132.864 985.958 133.38C985.958 133.884 985.79 134.304 985.454 134.64C985.118 134.976 984.704 135.144 984.212 135.144Z" fill="white"/>
</svg>
