<?xml version="1.0" encoding="UTF-8"?><svg id="Layer_1" xmlns="http://www.w3.org/2000/svg" viewBox="0 0 126.33 56.86"><defs><style>.cls-1{letter-spacing:.03em;}.cls-2{fill:#726658;font-family:1000yearsofKhabarovsk, '1000 years of Khabarovsk';font-size:12px;}.cls-3{letter-spacing:-.02em;}.cls-4{opacity:.7;}.cls-5{fill:#b88760;isolation:isolate;opacity:.6;}</style></defs><g id="Lines"><path class="cls-5" d="M20.22,6.69h0c.26,.27,.26,.7,0,.96L1.15,26.85c-.26,.27-.69,.27-.95,0h0c-.26-.27-.26-.7,0-.96L19.27,6.69c.26-.27,.69-.27,.95,0Z"/><path class="cls-5" d="M22.31,21.47h0c.26,.27,.26,.7,0,.96L3.23,41.63c-.26,.27-.69,.27-.95,0h0c-.26-.27-.26-.7,0-.96L21.35,21.47c.26-.27,.69-.27,.95,0Z"/><path class="cls-5" d="M64.77,12.68h0c.26,.27,.26,.7,0,.96l-19.07,19.2c-.26,.27-.69,.27-.95,0h0c-.26-.27-.26-.7,0-.96L63.81,12.68c.26-.27,.69-.27,.95,0Z"/><path class="cls-5" d="M69.51,29.62h0c.26,.27,.26,.7,0,.96l-19.07,19.2c-.26,.27-.69,.27-.95,0h0c-.26-.27-.26-.7,0-.96l19.07-19.2c.26-.27,.69-.27,.95,0Z"/><path class="cls-5" d="M68.36,24.19h0c.26-.27,.69-.27,.95,0l19.07,19.2c.26,.27,.26,.7,0,.96h0c-.26,.27-.69,.27-.95,0l-19.07-19.2c-.26-.27-.26-.7,0-.96Z"/><path class="cls-5" d="M102.07,7.89h0c.26-.27,.69-.27,.95,0l19.07,19.2c.26,.27,.26,.7,0,.96h0c-.26,.27-.69,.27-.95,0l-19.07-19.2c-.26-.27-.26-.7,0-.96Z"/><path class="cls-5" d="M104.78,32.47h0c.26-.27,.69-.27,.95,0l19.07,19.2c.26,.27,.26,.7,0,.96h0c-.26,.27-.69,.27-.95,0l-19.07-19.2c-.26-.27-.26-.7,0-.96Z"/><path class="cls-5" d="M77.94,8.05h0c.26-.27,.69-.27,.95,0l19.07,19.2c.26,.27,.26,.7,0,.96h0c-.26,.27-.69,.27-.95,0l-19.07-19.2c-.26-.27-.26-.7,0-.96Z"/><path class="cls-5" d="M25.38,36.5h0c.26,.27,.26,.7,0,.96L6.3,56.66c-.26,.27-.69,.27-.95,0h0c-.26-.27-.26-.7,0-.96l19.07-19.2c.26-.27,.69-.27,.95,0Z"/></g><g id="Letters" class="cls-4"><text class="cls-2" transform="translate(7.74 34.68) rotate(-45)"><tspan x="0" y="0">АБВГ</tspan></text><text class="cls-2" transform="translate(10.81 49.71) rotate(-45)"><tspan x="0" y="0">ДЕЖЗ</tspan></text><text class="cls-2" transform="translate(46.63 28.98) rotate(-45)"><tspan x="0" y="0">ИЙКЛ</tspan></text><text class="cls-2" transform="translate(46.15 50.6) rotate(-45)"><tspan x="0" y="0">МНОПР</tspan></text><text class="cls-2" transform="translate(71.06 24.9) rotate(45)"><tspan x="0" y="0">С</tspan><tspan class="cls-1" x="5.62" y="0">Т</tspan><tspan class="cls-3" x="13.31" y="0">У</tspan><tspan x="20.24" y="0">ФХ</tspan></text><text class="cls-2" transform="translate(78.16 7.21) rotate(45)"><tspan x="0" y="0">ЦЧШЩ</tspan></text><text class="cls-2" transform="translate(108.46 34.51) rotate(45)"><tspan x="0" y="0">Ъь</tspan></text><text class="cls-2" transform="translate(107.46 11.51) rotate(45)"><tspan x="0" y="0">ЮЯ</tspan></text></g></svg>