<?xml version="1.0" encoding="UTF-8"?><svg id="Layer_2" xmlns="http://www.w3.org/2000/svg" viewBox="0 0 92.68 33.14"><defs><style>.cls-1{fill:#b98760;opacity:.6;}</style></defs><g id="Text"><g id="Lines-background"><rect class="cls-1" x="7.07" y="-.34" width="1" height="21" rx=".5" ry=".5" transform="translate(9.4 -2.38) rotate(45)"/><rect class="cls-1" x="15.61" y="-2.93" width="1" height="21" rx=".5" ry=".5" transform="translate(10.07 -9.17) rotate(45)"/><rect class="cls-1" x="8.61" y="9.07" width="1" height="21" rx=".5" ry=".5" transform="translate(16.51 -.71) rotate(45)"/><rect class="cls-1" x="38.61" y="4.07" width="1" height="21" rx=".5" ry=".5" transform="translate(21.76 -23.39) rotate(45)"/><rect class="cls-1" x="43.61" y="15.07" width="1" height="21" rx=".5" ry=".5" transform="translate(31 -23.7) rotate(45)"/><rect class="cls-1" x="57.61" y="11.07" width="1" height="21" rx=".5" ry=".5" transform="translate(1.77 47.41) rotate(-45)"/><rect class="cls-1" x="82.61" y="-.93" width="1" height="21" rx=".5" ry=".5" transform="translate(17.57 61.57) rotate(-45)"/><rect class="cls-1" x="84.61" y="9.07" width="1" height="21" rx=".5" ry=".5" transform="translate(11.09 65.91) rotate(-45)"/><rect class="cls-1" x="73.61" y="5.07" width="1" height="21" rx=".5" ry=".5" transform="translate(10.7 56.97) rotate(-45)"/></g></g></svg>